<svg xmlns="http://www.w3.org/2000/svg" viewBox="0 0 78.14 84.85"><defs><style>.cls-1{fill:#c4da5a;}.cls-2,.cls-3{fill:none;stroke:#0071bc;stroke-linejoin:round;stroke-width:3px;}.cls-3{stroke-linecap:square;}</style></defs><title>bill</title><g id="Layer_2" data-name="Layer 2"><g id="Layer_1-2" data-name="Layer 1"><path class="cls-1" d="M25.74,28.8V66.12H7.56a6,6,0,0,0,4.29-1.81,6.26,6.26,0,0,0,1.77-4.37V28.8a6.21,6.21,0,0,1,1.78-4.37,6,6,0,0,1,4.28-1.81,6.11,6.11,0,0,1,6.06,6.18"/><path class="cls-2" d="M19.68,22.62H70.56a6.14,6.14,0,0,1,6.08,6.2V83.35H71.39a4.78,4.78,0,1,0-9.54,0H56a5.07,5.07,0,0,0-4.77-5.14,5.06,5.06,0,0,0-4.77,5.14H40.53a5.07,5.07,0,0,0-4.77-5.14A5.06,5.06,0,0,0,31,83.35H25.74V66.12"/><polyline class="cls-2" points="1.5 22.62 1.5 1.5 52.4 1.5 52.4 22.62"/><line class="cls-2" x1="20.38" y1="66.12" x2="7.56" y2="66.12"/><path class="cls-2" d="M13.62,28.8a6.24,6.24,0,0,1,1.77-4.37,6,6,0,0,1,4.29-1.81,6.11,6.11,0,0,1,6.06,6.18V66.12"/><path class="cls-2" d="M13.62,28.8V59.94a6.26,6.26,0,0,1-1.77,4.37,6,6,0,0,1-4.29,1.81A6.12,6.12,0,0,1,1.5,59.94V22.62"/><polyline class="cls-3" points="65.61 33.23 51.66 33.23 37.71 33.23"/><polyline class="cls-3" points="58.27 41.55 51.66 41.55 45.05 41.55"/><polyline class="cls-3" points="43.68 53.01 42.78 53.01 35.42 53.01"/><line class="cls-3" x1="51.2" y1="53.01" x2="49.97" y2="53.01"/><polyline class="cls-3" points="43.68 60.41 42.78 60.41 35.42 60.41"/><line class="cls-3" x1="51.2" y1="60.41" x2="49.97" y2="60.41"/><polyline class="cls-3" points="43.68 67.82 42.78 67.82 35.42 67.82"/><line class="cls-3" x1="51.2" y1="67.82" x2="49.97" y2="67.82"/><path class="cls-2" d="M67.89,55.74A4.06,4.06,0,0,0,64,52.55h-.14a4,4,0,0,0-4.11,3.94c0,2.17,1.63,3.31,4.11,3.94C66.09,61,68,62.19,68,64.37a4,4,0,0,1-4,3.93h-.15a4.07,4.07,0,0,1-4-3.15"/><polyline class="cls-2" points="64 72.05 64 68.3 64 68.3"/><polyline class="cls-2" points="63.99 52.56 63.99 52.55 63.99 48.78"/></g></g></svg>