<svg xmlns="http://www.w3.org/2000/svg" viewBox="0 0 87.11 108.54"><defs><style>.cls-1{fill:none;stroke:#0071bc;stroke-miterlimit:10;stroke-width:4.29px;}.cls-2{fill:#df84ba;}</style></defs><title>calculator</title><g id="Layer_2" data-name="Layer 2"><g id="Layer_1-2" data-name="Layer 1"><path class="cls-1" d="M85,77.62v26.21a2.56,2.56,0,0,1-2.56,2.56H4.72a2.57,2.57,0,0,1-2.58-2.56V4.71A2.58,2.58,0,0,1,4.72,2.14H82.41A2.57,2.57,0,0,1,85,4.71V77.62Z"/><polyline class="cls-1" points="2.15 39.65 29.76 39.65 57.36 39.65 84.97 39.65"/><polyline class="cls-1" points="57.36 72.67 29.76 72.67 2.16 72.67"/><polyline class="cls-1" points="29.76 106.39 29.76 88.76 29.76 72.67 29.76 56.59 29.76 39.66"/><polyline class="cls-1" points="57.36 106.39 57.36 88.76 57.36 77.62 57.36 72.67 57.36 56.59 57.36 39.66"/><path class="cls-2" d="M73.16,15.38V26.94A2.09,2.09,0,0,1,71.07,29H16A2.09,2.09,0,0,1,14,26.94V15.38A2.08,2.08,0,0,1,16,13.29h55a2.08,2.08,0,0,1,2.09,2.09"/><rect class="cls-1" x="13.95" y="13.29" width="59.21" height="15.74" rx="2.09"/><polyline class="cls-1" points="23.36 56.59 15.95 56.59 8.55 56.59"/><polyline class="cls-1" points="15.95 49.35 15.95 56.59 15.95 63.84"/><polyline class="cls-1" points="21.35 84.64 15.95 90.05 10.56 95.46"/><polyline class="cls-1" points="10.56 84.64 15.95 90.05 21.35 95.46"/><line class="cls-1" x1="78.78" y1="68.89" x2="63.62" y2="68.89"/><line class="cls-1" x1="78.78" y1="77.62" x2="63.62" y2="77.62"/><line class="cls-1" x1="36.15" y1="56.59" x2="50.96" y2="56.59"/><line class="cls-1" x1="36.15" y1="88.76" x2="50.96" y2="88.76"/><line class="cls-1" x1="43.56" y1="84.62" x2="43.56" y2="80.82"/><line class="cls-1" x1="43.56" y1="96.69" x2="43.56" y2="92.9"/></g></g></svg>