<svg xmlns="http://www.w3.org/2000/svg" xmlns:xlink="http://www.w3.org/1999/xlink" viewBox="0 0 192.15 144.48"><defs><style>.cls-1{fill:none;}.cls-2,.cls-4{fill:#fff;}.cls-3{clip-path:url(#clip-path);}.cls-4,.cls-5{fill-rule:evenodd;}.cls-5{fill:#d1041f;}</style><clipPath id="clip-path"><path class="cls-1" d="M129.9,4.05c-5.46,1.9-10.66,4.25-15,8.12-2.77,2.46-5.33,5.15-8.05,7.66-3.87,3.57-8.14,6.38-13.62,6.72-1.33.08-2.65.19-4,.24-.82,0-1,.41-.71,1.06a7.94,7.94,0,0,0,.92,1.63,23.78,23.78,0,0,0,8.85,7.84,1.85,1.85,0,0,1,1.22,2.28,10.1,10.1,0,0,1-1.32,3.73A39,39,0,0,1,94,49.83l-.37.38-.38.36c-.86.78-.55,1.29.17,1.82a14.36,14.36,0,0,0,1.24.78c2.31,1.35,4.88,1.61,8.06,1.73a18.5,18.5,0,0,0,5.42-.82,44.84,44.84,0,0,0,11.07-5.91c5-3.51,9.62-7.43,14.87-10.54,5.6-3.32,11.39-6,18.08-5.91,1.31,0,1.42-.17,1.19-1.47a3.44,3.44,0,0,0-.23-.8c-.23-1-.46-2-.7-3l-.09-.35c-.2-.85-.41-1.69-.62-2.53-.53-2.13-1.06-4.27-1.57-6.41-.66-2.78-1.3-5.56-1.84-8.37-.19-1-.42-1.91-.66-2.86-.09-.34-.17-.68-.25-1a2.5,2.5,0,0,0-.07-.26V4.6l-.12-.12a.06.06,0,0,1,0-.06,5.38,5.38,0,0,0-.2-.51h0a1.37,1.37,0,0,0-.13-.2h0a2.27,2.27,0,0,0-.55-.52,2.65,2.65,0,0,0-1.12-.37,13.2,13.2,0,0,0-1.71-.34,29.65,29.65,0,0,0-3.39-.2,30.81,30.81,0,0,0-10.2,1.8"/></clipPath></defs><title>canada-side-flag</title><g id="Layer_2" data-name="Layer 2"><g id="Layer_1-2" data-name="Layer 1"><g id="Layer_1-2-2" data-name="Layer 1-2"><path class="cls-2" d="M81.17,120H66.66a2.39,2.39,0,0,1,.3,1.23c4.74,0,9.6,0,14.1.06a5.24,5.24,0,0,1,.11-1.31"/><path class="cls-2" d="M143.43,120.29H131.9a2.45,2.45,0,0,1,0,1.26h10.7a2,2,0,0,1,.86-1.22"/><path class="cls-2" d="M175,120.58c-2.07,0-5.44-.09-9.57-.13l.06.15a2,2,0,0,1,0,1.15h9.56a2.21,2.21,0,0,1-.1-1.27"/><path class="cls-2" d="M159.2,120.52v-.13h-7.57a2.22,2.22,0,0,1,.32,1.26l7.34.08a6.49,6.49,0,0,1-.1-1.16"/><path class="cls-2" d="M109.77,120.3c-3.11,0-6.21,0-9.31-.07a2.35,2.35,0,0,1,.25.53,1.94,1.94,0,0,1,.08.76h1.29c1.74,0,3.49.07,5.23.07h3.2a2.23,2.23,0,0,1-.74-1.32"/><path class="cls-2" d="M94.81,121.38a2.08,2.08,0,0,1,0-1.26l-3.6-.09h-4a2.35,2.35,0,0,1,.1.54,1.79,1.79,0,0,1-.15.79l7.63.07"/><path class="cls-2" d="M52.77,120.28h0a1.88,1.88,0,0,1,.1-.19h0c-20.77.07-43.87.16-52.87.08v1.09H52.15a2.33,2.33,0,0,1,.51-.89"/><path class="cls-2" d="M178.21,108c-1.37-5.34-2.53-10.74-3.82-16.11q-3.45-14.25-6.94-28.5c-2.4-9.91-4.63-19.86-7.14-29.75-2.45-9.68-4.59-19.44-6.89-29.16a28.25,28.25,0,0,0-.95-3A2.24,2.24,0,0,0,150.18,0a3.19,3.19,0,0,0-2.47,1,1.65,1.65,0,0,1-1.86.5A19.18,19.18,0,0,0,140.46,1a31,31,0,0,0-10.87,2A43.48,43.48,0,0,0,114,11.35c-2.62,2.31-5,4.88-7.53,7.29-3.89,3.69-8.21,6.43-13.8,6.72a29.59,29.59,0,0,1-4.8,0c-.89-.1-1.15.3-1,1.09a9.62,9.62,0,0,0,2,4.33,22.91,22.91,0,0,0,8.5,7.31A1.51,1.51,0,0,1,98.32,40l0,.06a13.22,13.22,0,0,1-1.52,3.44,32.94,32.94,0,0,1-5.89,8.12A12,12,0,0,0,97,55.44a26.22,26.22,0,0,0,7.29.48c4.46-.38,8.32-2.27,12-4.55a87.18,87.18,0,0,0,9.4-6.66c3-2.43,6.42-4.21,9.57-6.42,3.75-2.62,8-3.81,12.41-4.85a13.82,13.82,0,0,1,4-.41c2.16.12,2.51.36,3,2.45l6,25.08c.49,2,1,4.08,1.47,6.12.21.91.69,1.14-.37,1.72a5.21,5.21,0,0,0-1.4,2.3c-.35,1-.33,2.31-.74,3.47-.45-3-4.09-6.91-7.79-6.92a8.62,8.62,0,0,0-8.62,6c-1.26,4.59.64,9.4,6.35,10.65.52.11,1.13,0,1.56.59A13.28,13.28,0,0,0,148.63,90a90.56,90.56,0,0,0-1.08,9.58c-.19,4.18-.2,7.89-.39,12.07a10.12,10.12,0,0,1-2.73,6.11,22.57,22.57,0,0,0-3.88,5.27,3.53,3.53,0,0,0-.29,2.72,5.11,5.11,0,0,0,3.64,3.44c2.7.73,7-6.08,8.53-7.75a12.21,12.21,0,0,0,2.81-6.57c.3-1.81.26-3.62.42-5.43a1,1,0,0,1,.75-1.12c.57-.12,1,.43,1.14,1,.22,1,.94,12.86,1.51,17.72.17,1.48,1.54,2.1,3,2.42,1.16.26,4.92.32,4.36-5.21-.32-3.69-1.93-23.36-2.18-29.36-.11-2.63,1.36-4,3-5.81.77,3.34,1.43,6.34,2.15,9.32,2.25,9.38,4.71,18.71,6.74,28.14a2.5,2.5,0,0,0,2.81,2.15H179a7.28,7.28,0,0,0,2.64-.62c1.42-.61,1.23-2,.76-3.5-1.78-5.81-2.7-10.65-4.21-16.53m-26-76.3c-6.69,0-12.48,2.59-18.08,5.9-5.25,3.11-9.91,7-14.87,10.55a45.14,45.14,0,0,1-11.07,5.9,18.8,18.8,0,0,1-5.42.83c-3.18-.12-5.75-.39-8.06-1.74a14.36,14.36,0,0,1-1.24-.78c-.72-.53-1-1-.17-1.82l.38-.36.37-.38a37.69,37.69,0,0,0,4.23-6.47,10.16,10.16,0,0,0,1.32-3.73,1.85,1.85,0,0,0-1.23-2.28,23.84,23.84,0,0,1-8.84-7.84,8.85,8.85,0,0,1-.91-1.65c-.28-.66-.11-1.05.7-1.07,1.33,0,2.65-.16,4-.24,5.48-.34,9.75-3.15,13.62-6.72,2.72-2.51,5.28-5.2,8-7.66,4.36-3.86,9.56-6.22,15-8.12a29.79,29.79,0,0,1,13.59-1.6c.55.07,1.09.27,1.64.34a2.38,2.38,0,0,1,1.12.38,2.05,2.05,0,0,1,.55.51h0a1.37,1.37,0,0,1,.13.2h0a2.43,2.43,0,0,1,.22.46v.06l.06.19v.07a2,2,0,0,1,.07.26c.08.34.16.68.25,1,.23,1,.47,1.9.66,2.86.54,2.81,1.18,5.6,1.84,8.37.51,2.14,1,4.28,1.57,6.41.21.84.42,1.69.62,2.53l.09.36c.24,1,.47,2,.7,2.95.07.27.18.53.23.81.23,1.29.12,1.47-1.19,1.47m-5.93,49.18a7.3,7.3,0,0,1-2.1-4.6c-.4-7.72,8.47-9.3,12.29-5.67,3.07,2.71,2.68,8.27-.77,10.45-.47.3-.95.59-1.43.86a6.55,6.55,0,0,1-8-1m19,44.91c.08,1.78-1.56,2.7-3.27,2.19a2.48,2.48,0,0,1-1.64-2.26c-.79-5.19-.75-10.26-1.25-15.47a6.7,6.7,0,0,0-.38-1.83,2.68,2.68,0,0,0-2.72-1.51,2.22,2.22,0,0,0-1.52,2.06c-.23,2.07-.09,5.62-.67,7.68s-4.45,6.75-6.19,9.06c-2.1,2.24-3.28,3-5.07,1.26a3.18,3.18,0,0,1-.72-3.75c.91-2.08,2.33-3.19,3.81-4.84a12,12,0,0,0,2.76-8.06,162.33,162.33,0,0,1,.89-16.94c.38-2.92.86-5.8,2.94-8.13A12.38,12.38,0,0,1,155,82.82c.72-.43,1.45-.84,2.17-1.28,2.2-1.35,4-8.75,4.34-10.18.18-.78.32-1.55,1-1.92,1.66-.85,3.78.11,3.55,1.93a52.34,52.34,0,0,1-2.21,11,7.07,7.07,0,0,1-1.61,2.43A37.14,37.14,0,0,1,159,88.08c-.43.37-1.34.8-.78,1.42s1.18-.23,1.65-.64c.63-.55,1.21-1.16,1.82-1.73.2-.19.38-.74.88-.72a13.16,13.16,0,0,1,.46,4.92c-.12,7.28,2,30.23,2.16,34.48m-1-35.35a16.08,16.08,0,0,0-.61-5.21,8.83,8.83,0,0,0,1.93-3.62,51.37,51.37,0,0,1,1.17,5.51c.16,1.18-1.56,2.36-2.49,3.32m15.65,36.88c-1.49.34-2.34-.21-2.71-1.82-.67-2.86-1.27-5.73-2-8.58-1.38-5.71-2.81-11.4-4.2-17.1q-2.44-10.07-4.85-20.16c-.07-.31,1-5.81,1.12-8.2V71a3,3,0,0,0-.63-2.15,2.69,2.69,0,0,0-1.87-.82c-1.2-.11-1.5-.74-1.73-1.7-1.19-5-2.41-10-3.62-15.08-1.59-6.59-3.21-13.17-4.77-19.77-1.42-6-2.76-12.13-4.18-18.18-.79-3.33-1.55-5.8-2.32-10-.24-1.34.59-2,1.84-2a1.51,1.51,0,0,1,1.63.93A15.12,15.12,0,0,1,152.11,4c4.16,18.05,8.66,36,13,54,2.8,11.61,5.71,23.21,8.24,34.88,2.25,10.39,5.23,20.59,7.58,30.94.08.34.17.68.25,1,.41,1.85.21,2.24-1.35,2.59"/><path class="cls-2" d="M89.87,55c-.22-.27-.48-.5-.72-.75s-.57-.5-.91-.28A.72.72,0,0,0,88,55l.06.09c1.8,2.37,3.83,4.46,7,4.89a3.78,3.78,0,0,0,3.52-1.17c-4,.69-6.55-1.14-8.72-3.8"/><path class="cls-2" d="M184.27,128c-.27.11-.51.29-.52.58a.65.65,0,0,0,.68.59l7.09-.09a.68.68,0,0,0,.63-.46c-1.13-.61-6.74-1-7.88-.62"/><path class="cls-2" d="M172.81,128.85c-.82-.09-1.66,0-2.5-.06h-4l-.18.13c.35,1.09,1.27,1.17,2.19,1.16,1.45,0,2.91-.05,4.37-.12.56,0,1.5.4,1.56-.43s-.93-.63-1.49-.7"/><path class="cls-2" d="M136.22,129c-.16.44.14.67.48.76a15.55,15.55,0,0,0,6,.29c.27,0,.54-.11.63-.72l-6.42-.69a.56.56,0,0,0-.67.36"/><path class="cls-2" d="M101.84,108.94c2.09-.93,2.35-1.59,2.1-3.77q-.89-7.48-2.29-14.88a10.3,10.3,0,0,0-2.87-5.63c-.79-.78-1.66-1.49-2.42-2.27,3.17-3.06,4-5.14,3.61-9.1-.36-3.21-3.85-6.62-7-6.84a8.57,8.57,0,0,0-8.65,5,8.7,8.7,0,0,0,2.8,10.3c-.31.53-.56.49-.92.66a10.35,10.35,0,0,0-4.61,4c-1,1.72-4,12.82-4.25,16.74-.18,2.35.52,4,3.06,4.68,1.09.31,1.34.53,1.24,1.41-.42,3.73-1,7.77-1.42,11.5a34,34,0,0,0-.41,4.62,4,4,0,0,0,1.55,3.41,3.72,3.72,0,0,0,5.18-.81,3.67,3.67,0,0,0,.64-1.44c1.32-7.44,2.25-14.85,3.07-17.79.28-.54.42-.85,1.14-.77s.65.62.74,1.11c.38,2.18,1.63,13.39,2.25,16.82.59,3.24,1.06,4,4.48,3.76,1.79-.15,2.45-.89,2.79-2.64.12-.59-.37-12.07-.82-16.48-.21-1,0-1.07,1-1.53M85.27,77.3c-.87-2.54-.63-5.86,2.88-8.57s9.57-.19,10.55,4.15a8.31,8.31,0,0,1-1.27,6.65,5.94,5.94,0,0,1-5.5,2.64,7,7,0,0,1-6.66-4.87m15.11,29.79c-.36-1.78-1-13.56-1.33-13.57s-.53.33-.53.68c0,1.41.42,10.78.84,14,.61,4.66,1.5,16.81,1.28,18.22-.25,1.57-.86,1.93-2,2.08-1.69.2-2.28-.2-2.85-1.49s-2.55-18.2-2.75-19a2,2,0,0,0-1.63-1.54,1.8,1.8,0,0,0-1.79.8c-1,1.37-3.26,17.63-3.43,18.68-.24,1.5-2,2.79-3.39,2.23S81,126.54,81,125a29.8,29.8,0,0,1,.32-3.77c.44-3.86,2.57-18.85,3.22-22.48.25-1.38.41-2.77.6-4.17,0-.34,0-.71-.37-.82s-.69.26-.8.65-1,7-1.51,10.3c-.12.74-.21,1.75-1.32,1.89-.78.09-2.41-.76-2.59-1.67a11.75,11.75,0,0,1,.22-2.21c.2-3.78,3-14.35,4-16a7.46,7.46,0,0,1,6-3.69c2,0,4.1.4,6.17.44a2.22,2.22,0,0,1,1.43.53,8.65,8.65,0,0,1,4.07,5.8c1,5.12,1.77,10.29,2.35,15.48a2.42,2.42,0,0,1-.87,2.37c-.8.6-1.29.45-1.5-.56"/><path class="cls-2" d="M105.13,108.12a4,4,0,0,0,2.22-1.92,5.24,5.24,0,0,0,.49-4.81c-.12-.39-.27-.82-.78-.71s-.43.57-.32,1a6,6,0,0,1-1.43,6,1.53,1.53,0,0,0-.18.52"/><path class="cls-2" d="M103.52,128.3a.45.45,0,0,0-.49.49c0,.33.34.4.59.38a16.11,16.11,0,0,0,4.73-.68,14.78,14.78,0,0,0-4.83-.19"/><path class="cls-2" d="M135,82.33c-1.26,0-2.44,1-3.11,2.81a40.92,40.92,0,0,0-.64,5.06,2.87,2.87,0,0,1-.83,2.45A14.67,14.67,0,0,1,126,94.86a8.4,8.4,0,0,0,.79-6.61,7.45,7.45,0,0,0-4.39-5.1c-4.56-1.71-8.78-.23-10.94,3.56a8.61,8.61,0,0,0-.74,5.73c.78,3.08,3,4.86,6.12,5.93a13.29,13.29,0,0,0-6.84,8.35,36,36,0,0,0-1.27,12.82c.15,1.92.79,3.49,3.08,3.66a1,1,0,0,1,1.05,1,1,1,0,0,1-.05.35v1c-.13,5.14-.3,10.28-.38,15.43,0,2.36,1,3.37,3.28,3.54a3.65,3.65,0,0,0,3.94-3c1-4.87,1-9.82,1.63-14.73a6.37,6.37,0,0,1,.86-3.08c.65-.93,1.55-.82,2.11.16a5.52,5.52,0,0,1,.43,2.41c.32,5,.21,10,.39,15,.07,2,.63,2.73,2.61,3,2.61.31,4.52-.77,4.39-3.78-.09-4.58.06-24.79.23-33.71a3.28,3.28,0,0,1,.86-2.25c1.37-1.75,2.72-3.51,4.1-5.25a5.24,5.24,0,0,0,1.18-3c.14-1.65.73-9.46.27-11.34A3.67,3.67,0,0,0,135,82.33m-23.29,8a6.84,6.84,0,0,1,7-6.77c5.23.2,7.54,4.19,7.33,7.47-.25,3.86-3.19,6.37-7.48,6.26a7,7,0,0,1-6.9-7m25.51,5.83A4.87,4.87,0,0,1,136,98.93c-1.44,1.85-2.84,3.74-4.26,5.6a3.19,3.19,0,0,0-.65,2.29c.28,5.14.07,31.27.06,33.68a2.53,2.53,0,0,1-2,2.69c-1.62.48-2.87-.51-3-2.27-.12-1.39-.13-2.79-.15-4.18s-.13-9.4-.24-12v-.19c-.2-1.87-1-2.6-2.41-2.63a2.55,2.55,0,0,0-2.6,2.29c-.64,2.8-1.6,14.18-2.1,17a2.87,2.87,0,0,1-3.47,2.1,2.93,2.93,0,0,1-1.12-.55,2.33,2.33,0,0,1-.61-1.93c0-2.86.36-16.82,1-20.92.34-4.44.69-5.91.79-8.89,0-.32.15-1.47-.17-1.49a.55.55,0,0,0-.53.45c-.22.8-1,8-1.28,10.77,0,.46,0,1.13-.66,1.21a1.87,1.87,0,0,1-1.9-.61,2.88,2.88,0,0,1-.49-1.22,30.15,30.15,0,0,1,1.6-14.79c1.14-3,3.45-5,6.13-6.51a1,1,0,0,1,.54-.16,25.79,25.79,0,0,0,6.37-1.83c2-.72,3.84-2,5.83-2.81A2.45,2.45,0,0,0,132,92.1a22.79,22.79,0,0,0,.35-3.39,10.35,10.35,0,0,1,.88-4.18c.71-1.33,2.45-1.32,3.68-.43.82.6.79,1.41.94,2.4.05,2.76-.62,8.27-.67,9.67"/><path class="cls-2" d="M142.5,84.88c0-1.53-2.31-4.25-3.82-4.67-.33-.09-.66-.12-.84.19s.07.57.35.73c2.2,1.26,3.45,3,3,5.82a2.08,2.08,0,0,0,1.27-2.07"/><path class="cls-2" d="M132,144c1.44.3,4.57.38,5.87-.23.09-.35-6-1.57-5.87.23"/><path class="cls-2" d="M64.45,98.13c3.06-3.39,2.94-8.3,1.06-10.84-2.22-3.36-8.91-3.47-10.76-2.08-3,2.24-4.4,4.12-3.94,7.78a8.31,8.31,0,0,0,2.3,4.69,14.15,14.15,0,0,0-3.76,2.23c-1.25,1.23-2.64,2.34-3.84,3.62-1.5,1.61-3.27,3-4.43,4.9a2.65,2.65,0,0,0,0,3A38.82,38.82,0,0,0,47.81,120a2.67,2.67,0,0,0,1.63.88c1.14.06,1.3.69,1.18,1.65s-.16,2.14-.21,3.2c-.2,4.35-.38,8.69-.61,13-.09,1.77,1.8,2.73,3.53,3a3.17,3.17,0,0,0,3.74-2.45,3.24,3.24,0,0,0,0-1c-.07-2.91.5-5.78.46-8.69,0-1.5.2-3,.31-4.52a3.64,3.64,0,0,1,.66-1.94,1,1,0,0,1,1.37-.36.94.94,0,0,1,.43.51,7.12,7.12,0,0,1,.57,1.8,64.6,64.6,0,0,1,.77,6.94c.21,2.26.38,4.53.7,6.77a3,3,0,0,0,2.81,2.85c1,.1,5,.3,4.6-4.57-.37-6.37-1.47-16.8-1.47-16.8a3.4,3.4,0,0,0,2.14-.62A20.25,20.25,0,0,0,76.17,112a3.3,3.3,0,0,0-.62-3.86c-3.56-3.51-6.48-7.72-11.1-10M53.54,87.84c1.72-2,4.53-2.92,8.09-1.88,2.63,1.38,3.7,1.45,4.1,6.69a5.82,5.82,0,0,1-5.64,6c-.21,0-.41,0-.62,0a9.8,9.8,0,0,1-4.33-1.14,6.34,6.34,0,0,1-2.26-8.69,6,6,0,0,1,.66-.93M75,112c-1.29,2.57-2.82,5.18-5.28,6.8-.36.24-2.72.49-2.62-1.61.14-.84,2.41-3.33,2.91-4.06a3.2,3.2,0,0,0,.77-1.9c0-1.51-2.76-3.87-4.28-3.77-1.12,0,0,6.31.3,7.42a4.05,4.05,0,0,0-.52,4.37,3.89,3.89,0,0,1,1.12,3.09c1.27,14,2.15,17.63-.6,17.91a2.17,2.17,0,0,1-2.75-.89,6.68,6.68,0,0,1-.69-2.54c-.32-2.89-.58-5.78-.89-8.67a20.16,20.16,0,0,0-.92-4.81c-.59-1.58-1.28-2.2-2.33-2A2.79,2.79,0,0,0,57,123.8a147.1,147.1,0,0,0-1,14.69c-.09,1.85-1.15,2.27-2.73,2.15-2.14,0-2-3.08-2-3.78h0c.22-5,.44-10.09.63-15.13,0-.72-.11-1.21.45-1.75a2.55,2.55,0,0,0,.54-3.39c-1.38-2-1.35-2.52-1.35-2.52.09-.43.28-4.86.23-5.3-.08-.69-.45-.92-1.19-.77-2.28.47-3.09,2.36-1.93,4.42.84,1.5,4.65,5,2.94,6.66-1,1-1.94.74-3.1-.19-2.76-2.21-4.41-5-6.16-8a2.12,2.12,0,0,1,.47-2.59,49.53,49.53,0,0,1,4.67-4.94c1-1,2.14-2,3.23-2.91A5.23,5.23,0,0,1,56,99.15a13.36,13.36,0,0,0,5.59.36c2-.18,3.87-.1,5.44,1.33A85.81,85.81,0,0,1,74.5,109a2.5,2.5,0,0,1,.46,3m-7.75-3c2.87.7,2.89,2.79.41,5-.17-2-.41-3.5-.41-5M50.3,112.37c-1.51-1.37-1.41-2.48.24-3.13a7.21,7.21,0,0,1-.24,3.13"/><path class="cls-2" d="M39.24,105.29c.44.27.22.64,0,1-1.56,2.26-1.25,4.62-.34,7,.15.39.46.76.11,1.41a9.91,9.91,0,0,1-1.82-4.54,6.53,6.53,0,0,1,1.11-4.48c.23-.32.55-.61.94-.36"/><path class="cls-2" d="M44,141.46c0,.38.46.52.86.57a25.1,25.1,0,0,0,6.48-.12c-2.32-.72-4.35-.62-6.3-1-.43-.07-1-.07-1,.5"/><path class="cls-2" d="M70,141.71c1.84,0,3.14,0,4.63-.14,0-1.06-6.21-1-4.63.14"/></g><g id="Layer_1-2-3" data-name="Layer 1-2"><g class="cls-3"><path class="cls-4" d="M155.4,34.54l-.4-1.2.09-.55,0-.31h-.26L149.92,16,146.54,5l.22-1.47L146.63,3l-.7-.08-.57-1.84.09-.61h0c-.61.07.56.21,0,.29C133.3,1.73,128.19,4,119,7.48c-10.6,4-15,5.66-28.39,7.89l.3.31h0l9.32,31.47h0l1.23,4.23c9.12-.9,17.54,6.81,26.73,2.82,5.26-2.28,11.35-14.14,16.49-15.44A55.59,55.59,0,0,1,156.23,37v-.19l-.63-2.2h-.23"/><path class="cls-5" d="M155.4,34.54l-.4-1.2v-.86h-.26L150.49,4.81l-3.73-1.33L146.63,3l-.7-.08-.57-1.84.53-.2c-2-.14-7.86.42-14.55,2.23l11.6,36.11c5.51-1.24,10.88-2.5,14.57-2.25l-1.25-.22-.63-2.2Z"/><path class="cls-5" d="M103,12.84s-21.81,8.82-26,9.47L92.68,69.48c5.13-.65,22.14-8.2,25.89-9.34,0,0-15.89-47.19-15.59-47.3"/><path class="cls-5" d="M116.31,20.19a9.32,9.32,0,0,0,.69,1.18l1.44,2.4c.23.39.55.85.73,1.24.31.66-.23.87-.72.62l-2.22-1.15c-.24-.1-.31-.16-.54-.26a3.77,3.77,0,0,0-.57-.28,4.58,4.58,0,0,0,0,1.17c0,.61-.27.62-.9.69l-2.84.34c.56.91,1.35,1.83,2,2.73.35.51.08.59-.48,1.06a2.44,2.44,0,0,0-.5.46c.35.14.73.24,1.08.37s.73.24,1.11.36L119,32.56c.84.26.5.94.58,2.12.88-.3,2.92-1.34,4-1.82,1.59-.71,1.52-.77,2,.72.13.46.27.92.4,1.37.28.93.54,1.86.82,2.79l.9-.28c-.34-.92-.7-1.84-1-2.76L126,33.37c-.58-1.53-.75-1.32,2.6-1.9.86-.14,2.08-.3,2.89-.53-1.3-1.92-1.64-1,.45-3.84l2-2.7c.22-.32.46-.61.65-.93h0l-.27,0c-1.55-.13-1.41,0-1.47-1.22a23.92,23.92,0,0,0-.1-2.69l-2.47,1.31c-.53.29-.81.49-1.17,0a6.69,6.69,0,0,0-.75-1,2.49,2.49,0,0,0-.27.51c-.12.23-.15.34-.26.53L126.77,23c-.21.47-.78.74-1,0s-.63-5.1-.77-5.5l-1.24,1.13c-.71.61-1,.07-1.5-.31s-2.38-2.07-2.54-2.15c-.08.14-.59,2.7-.69,3.13-.29,1.23-.17,1.24-1.86,1a2.48,2.48,0,0,1-.86-.1"/></g></g></g></g></svg>