<svg xmlns="http://www.w3.org/2000/svg" xmlns:xlink="http://www.w3.org/1999/xlink" viewBox="0 0 80.51 69"><defs><style>.cls-1{fill:none;}.cls-2{clip-path:url(#clip-path);}.cls-3{fill:#fff;}.cls-3,.cls-4{fill-rule:evenodd;}.cls-4{fill:#d1041f;}</style><clipPath id="clip-path"><path class="cls-1" d="M52.9,3.57c-5.46,1.9-10.66,4.25-15,8.12-2.77,2.46-5.33,5.15-8.05,7.66-3.87,3.57-8.14,6.38-13.62,6.72-1.33.08-2.65.19-4,.24-.82,0-1,.41-.71,1.06A8.63,8.63,0,0,0,12.44,29a23.85,23.85,0,0,0,8.85,7.84,1.84,1.84,0,0,1,1.22,2.28,10,10,0,0,1-1.32,3.73A38.1,38.1,0,0,1,17,49.35l-.37.38-.38.36c-.86.78-.55,1.29.17,1.82a14.36,14.36,0,0,0,1.24.78c2.31,1.35,4.88,1.61,8.06,1.73a18.54,18.54,0,0,0,5.42-.82,44.82,44.82,0,0,0,11.07-5.91c5-3.51,9.62-7.43,14.87-10.54,5.6-3.32,11.39-5.95,18.08-5.91,1.31,0,1.42-.17,1.19-1.47,0-.27-.16-.53-.23-.8-.23-1-.46-2-.7-3l-.09-.35c-.2-.85-.41-1.69-.62-2.53-.53-2.13-1.06-4.27-1.57-6.41-.66-2.78-1.3-5.56-1.84-8.37-.19-1-.42-1.91-.66-2.86-.09-.34-.17-.68-.25-1a2,2,0,0,0-.07-.26.19.19,0,0,0,0-.07L70.2,4a.14.14,0,0,1,0-.06A3.29,3.29,0,0,0,70,3.43h0a1.37,1.37,0,0,0-.13-.2s0,0,0,0a2.1,2.1,0,0,0-.55-.52,2.6,2.6,0,0,0-1.12-.37C67.58,2.24,67,2,66.49,2a27.76,27.76,0,0,0-3.39-.2,30.91,30.91,0,0,0-10.2,1.8"/></clipPath></defs><title>canada-flag</title><g id="Layer_2" data-name="Layer 2"><g id="Layer_1-2" data-name="Layer 1"><g class="cls-2"><path class="cls-3" d="M78.4,34.06,78,32.86l.09-.55L78.05,32l-.26,0L72.92,15.55,69.54,4.47,69.76,3l-.13-.47-.7-.08L68.36.61,68.45,0l-.27,0,.27,0c-.61.07.56.21,0,.29C56.3,1.25,51.19,3.53,42,7c-10.6,4-15,5.66-28.39,7.89l.3.31h0l9.32,31.47h0l1.23,4.23C33.58,50,42,57.71,51.19,53.72c5.26-2.28,11.35-14.14,16.49-15.44a55.49,55.49,0,0,1,11.55-1.81l0-.19-.63-2.2-.23,0"/><path class="cls-4" d="M78.4,34.06,78,32.86V32l-.26,0L73.49,4.33,69.76,3l-.13-.47-.7-.08L68.36.61l.53-.2c-2-.14-7.86.42-14.55,2.23l11.6,36.11c5.51-1.24,10.88-2.5,14.57-2.25l-1.25-.22-.63-2.2Z"/><path class="cls-4" d="M26,12.36S4.19,21.18,0,21.83L15.68,69c5.13-.65,22.14-8.2,25.89-9.34,0,0-15.89-47.19-15.59-47.3"/><path class="cls-4" d="M39.31,19.71A10.42,10.42,0,0,0,40,20.89l1.44,2.4c.23.39.55.85.73,1.24.31.66-.23.87-.72.62L39.23,24c-.24-.1-.31-.16-.54-.26a3.35,3.35,0,0,0-.57-.28,5.11,5.11,0,0,0,0,1.17c0,.61-.27.62-.9.69l-2.84.34c.56.91,1.35,1.83,2,2.73.35.51.08.59-.48,1.06a2.6,2.6,0,0,0-.5.46c.35.14.73.24,1.08.37s.73.24,1.11.36l4.37,1.44c.84.26.5.94.58,2.12.88-.3,2.92-1.34,4-1.82,1.59-.71,1.52-.77,2,.72.13.46.27.92.4,1.37.28.93.54,1.86.82,2.79l.9-.28c-.34-.92-.7-1.84-1.05-2.76L49,32.89c-.58-1.53-.75-1.32,2.6-1.9.86-.14,2.08-.3,2.89-.53-1.3-1.92-1.64-1,.45-3.84l2-2.7c.22-.32.46-.61.65-.93,0,0,0,0,0,0l-.27-.05c-1.55-.13-1.41.05-1.47-1.22,0-.87,0-1.85-.1-2.69l-2.47,1.31c-.53.29-.81.49-1.17,0a6,6,0,0,0-.75-1,2.81,2.81,0,0,0-.27.51c-.12.23-.15.34-.26.53l-1.06,2.12c-.21.47-.78.74-1,0S48.14,17.4,48,17l-1.24,1.13c-.71.61-1,.07-1.5-.31s-2.38-2.07-2.54-2.15c-.08.14-.59,2.7-.69,3.13-.29,1.23-.17,1.24-1.86,1-.29,0-.59,0-.86-.1"/></g></g></g></svg>