<svg xmlns="http://www.w3.org/2000/svg" viewBox="0 0 192.11 144.43"><defs><style>.cls-1{fill:#fff;}</style></defs><title>canada-side</title><g id="Layer_2" data-name="Layer 2"><g id="Layer_1-2" data-name="Layer 1"><path class="cls-1" d="M81.13,120l-14.51,0a2.39,2.39,0,0,1,.3,1.23c4.74,0,9.6,0,14.1.06,0-.44,0-.88.11-1.31"/><path class="cls-1" d="M143.39,120.28l-11.53,0a2.45,2.45,0,0,1,0,1.26c1.8,0,3.6,0,5.4,0h5.3a2,2,0,0,1,.86-1.22"/><path class="cls-1" d="M175,120.57c-2.07,0-5.44-.09-9.57-.13l.06.15a2,2,0,0,1,0,1.15h.33l3,0,2,0,4,0h.23a2.22,2.22,0,0,1-.1-1.27"/><path class="cls-1" d="M159.16,120.51s0-.08,0-.13l-7.57,0a2.2,2.2,0,0,1,.32,1.26l7.34.08a6.34,6.34,0,0,1-.1-1.16"/><path class="cls-1" d="M109.73,120.29c-3.11,0-6.21,0-9.31-.07a2.57,2.57,0,0,1,.25.53,2,2,0,0,1,.08.76l1.29,0c1.74,0,3.49.07,5.23.07l3.2,0a2.2,2.2,0,0,1-.74-1.32"/><path class="cls-1" d="M94.77,121.37a2.16,2.16,0,0,1,0-1.26l-3.6-.09c-.72,0-2.09,0-4,0a2.56,2.56,0,0,1,.1.54,1.89,1.89,0,0,1-.15.79l7.63.07"/><path class="cls-1" d="M52.73,120.27l0,0s.07-.15.1-.19h0c-20.77.07-43.87.16-52.87.08v1.09c6.17,0,16.51,0,25.31,0h.06l6.75,0h0l3.35,0h0l4.68,0,1,0c1.85,0,5.9,0,11,0a2.33,2.33,0,0,1,.51-.89"/><path class="cls-1" d="M178.17,108c-1.37-5.34-2.53-10.74-3.82-16.11q-3.45-14.25-6.94-28.5c-2.4-9.91-4.63-19.86-7.14-29.75-2.45-9.68-4.59-19.44-6.89-29.16a28.08,28.08,0,0,0-.95-3A2.24,2.24,0,0,0,150.14,0a3.2,3.2,0,0,0-2.47,1,1.63,1.63,0,0,1-1.86.5,19.55,19.55,0,0,0-5.39-.53,31.06,31.06,0,0,0-10.87,2A43.51,43.51,0,0,0,114,11.34c-2.62,2.31-5,4.88-7.53,7.29-3.89,3.69-8.21,6.43-13.8,6.72a29.59,29.59,0,0,1-4.8,0c-.89-.1-1.15.3-1,1.09a9.66,9.66,0,0,0,2,4.33,22.88,22.88,0,0,0,8.5,7.31,1.52,1.52,0,0,1,.89,2,12.93,12.93,0,0,1-1.52,3.44,32.85,32.85,0,0,1-5.89,8.12,12,12,0,0,0,6.12,3.79,25.77,25.77,0,0,0,7.29.48c4.46-.38,8.32-2.27,12-4.55a87.77,87.77,0,0,0,9.4-6.66c3-2.43,6.42-4.21,9.57-6.42,3.75-2.62,8.05-3.81,12.41-4.85a13.76,13.76,0,0,1,4-.41c2.16.12,2.51.36,3,2.45q3,12.54,6,25.08c.49,2,1,4.08,1.47,6.12.21.91.69,1.14-.37,1.72a5.18,5.18,0,0,0-1.4,2.3c-.35,1-.33,2.31-.74,3.47-.45-3-4.09-6.91-7.79-6.92-4.7,0-7.78,2.94-8.62,6-1.26,4.59.64,9.4,6.35,10.65.52.11,1.13,0,1.56.59A13.39,13.39,0,0,0,148.59,90a90.27,90.27,0,0,0-1.08,9.58c-.19,4.18-.2,7.89-.39,12.07a10.11,10.11,0,0,1-2.73,6.11,22.85,22.85,0,0,0-3.88,5.27,3.53,3.53,0,0,0-.29,2.72,5.09,5.09,0,0,0,3.64,3.44c2.7.73,7-6.08,8.53-7.75a12.19,12.19,0,0,0,2.81-6.57c.3-1.81.26-3.62.42-5.43,0-.51.18-1,.75-1.12s1,.43,1.14,1c.22,1,.94,12.86,1.51,17.72.17,1.48,1.54,2.1,3,2.42,1.16.26,4.92.32,4.36-5.21-.32-3.69-1.93-23.36-2.18-29.36-.11-2.63,1.36-4,3-5.81.77,3.34,1.43,6.34,2.15,9.32,2.25,9.38,4.71,18.71,6.74,28.14a2.5,2.5,0,0,0,2.87,2.14,7.38,7.38,0,0,0,2.64-.62c1.42-.61,1.23-2,.76-3.5-1.78-5.81-2.7-10.65-4.21-16.53m-26-76.3c-6.69-.05-12.48,2.59-18.08,5.9-5.25,3.11-9.91,7-14.87,10.55a45.12,45.12,0,0,1-11.07,5.9,18.93,18.93,0,0,1-5.42.83c-3.18-.12-5.75-.39-8.06-1.74a14.36,14.36,0,0,1-1.24-.78c-.72-.53-1-1-.17-1.82l.38-.36.37-.38a37.71,37.71,0,0,0,4.23-6.47,10,10,0,0,0,1.32-3.73,1.85,1.85,0,0,0-1.23-2.28,23.9,23.9,0,0,1-8.84-7.84,8.85,8.85,0,0,1-.91-1.65c-.28-.66-.11-1.05.7-1.07,1.33,0,2.65-.16,4-.24,5.48-.34,9.75-3.15,13.62-6.72,2.72-2.51,5.28-5.2,8-7.66,4.36-3.86,9.56-6.22,15-8.12a29.94,29.94,0,0,1,13.59-1.6c.55.07,1.09.27,1.64.34a2.48,2.48,0,0,1,1.12.38,2.06,2.06,0,0,1,.55.51v0a1.37,1.37,0,0,1,.13.2h0a2.43,2.43,0,0,1,.22.46l0,.06.06.19a.25.25,0,0,1,0,.07,2.5,2.5,0,0,1,.07.26c.08.34.16.68.25,1,.23,1,.47,1.9.66,2.86.54,2.81,1.18,5.6,1.84,8.37.51,2.14,1,4.28,1.57,6.41.21.84.42,1.69.62,2.53l.09.36c.24,1,.47,2,.7,2.95.07.27.18.53.23.81.23,1.29.12,1.47-1.19,1.47m-5.93,49.18a7.27,7.27,0,0,1-2.1-4.6c-.4-7.72,8.47-9.3,12.29-5.67,3.07,2.71,2.68,8.27-.77,10.45-.47.3-.95.59-1.43.86a6.54,6.54,0,0,1-8-1m19,44.91c.08,1.78-1.56,2.7-3.27,2.19a2.49,2.49,0,0,1-1.64-2.26c-.79-5.19-.75-10.26-1.25-15.47a7,7,0,0,0-.38-1.83,2.68,2.68,0,0,0-2.72-1.51,2.22,2.22,0,0,0-1.52,2.06c-.23,2.07-.09,5.62-.67,7.68s-4.45,6.75-6.19,9.06c-2.1,2.24-3.28,3-5.07,1.26a3.17,3.17,0,0,1-.72-3.75c.91-2.08,2.33-3.19,3.81-4.84a12,12,0,0,0,2.76-8.06,162.48,162.48,0,0,1,.89-16.94c.38-2.92.86-5.8,2.94-8.13A12.75,12.75,0,0,1,155,82.81c.72-.43,1.45-.84,2.17-1.28,2.2-1.35,4-8.75,4.34-10.18.18-.78.32-1.55,1-1.92,1.66-.85,3.78.11,3.55,1.93a52,52,0,0,1-2.21,11,7.17,7.17,0,0,1-1.61,2.43A37.14,37.14,0,0,1,159,88.07c-.43.37-1.34.8-.78,1.42.7.77,1.18-.23,1.65-.64.63-.55,1.21-1.16,1.82-1.73.2-.19.38-.74.88-.72a13.11,13.11,0,0,1,.46,4.92c-.12,7.28,2,30.23,2.16,34.48m-1-35.35a16.12,16.12,0,0,0-.61-5.21,8.7,8.7,0,0,0,1.93-3.62,53,53,0,0,1,1.17,5.51c.16,1.18-1.56,2.36-2.49,3.32m15.65,36.88c-1.49.34-2.34-.21-2.71-1.82-.67-2.86-1.27-5.73-2-8.58-1.38-5.71-2.81-11.4-4.2-17.1q-2.44-10.06-4.85-20.16c-.07-.31,1-5.81,1.12-8.2,0-.18,0-.34,0-.48a3,3,0,0,0-.63-2.15,2.73,2.73,0,0,0-1.87-.82c-1.2-.11-1.5-.74-1.73-1.7-1.19-5-2.41-10-3.62-15.08-1.59-6.59-3.21-13.17-4.77-19.77-1.42-6-2.76-12.13-4.18-18.18-.79-3.33-1.55-5.8-2.32-10-.24-1.34.59-2,1.84-2a1.52,1.52,0,0,1,1.63.93,16,16,0,0,1,.52,1.74c4.16,18.05,8.66,36,13,54,2.8,11.61,5.71,23.21,8.24,34.88,2.25,10.39,5.23,20.59,7.58,30.94.08.34.17.68.25,1,.41,1.85.21,2.24-1.35,2.59"/><path class="cls-1" d="M89.83,55c-.22-.27-.48-.5-.72-.75s-.57-.5-.91-.28A.73.73,0,0,0,88,55.06c1.8,2.37,3.83,4.46,7,4.89a3.77,3.77,0,0,0,3.52-1.17c-4,.69-6.55-1.14-8.72-3.8"/><path class="cls-1" d="M184.23,127.94c-.27.11-.51.29-.52.58s.29.59.68.59l7.09-.09a.68.68,0,0,0,.63-.46c-1.13-.61-6.74-1-7.88-.62"/><path class="cls-1" d="M172.77,128.84c-.82-.09-1.66-.05-2.5-.06l-4,0-.18.13c.35,1.09,1.27,1.17,2.19,1.16,1.45,0,2.91-.05,4.37-.12.56,0,1.5.4,1.56-.43s-.93-.63-1.49-.7"/><path class="cls-1" d="M136.18,129c-.16.44.14.67.48.76a15.44,15.44,0,0,0,6,.29c.27,0,.54-.11.63-.72l-6.42-.69a.57.57,0,0,0-.67.36"/><path class="cls-1" d="M101.8,108.93c2.09-.93,2.35-1.59,2.1-3.77q-.89-7.48-2.29-14.88a10.3,10.3,0,0,0-2.87-5.63c-.79-.78-1.66-1.49-2.42-2.27,3.17-3.06,4-5.14,3.61-9.1-.36-3.21-3.85-6.62-7-6.84a8.58,8.58,0,0,0-8.65,5,8.7,8.7,0,0,0,2.8,10.3c-.31.53-.56.49-.92.66a10.38,10.38,0,0,0-4.61,4c-1,1.72-4,12.82-4.25,16.74-.18,2.35.52,4,3.06,4.68,1.09.31,1.34.53,1.24,1.41-.42,3.73-1,7.77-1.42,11.5a34.32,34.32,0,0,0-.41,4.62,4,4,0,0,0,1.55,3.41,3.71,3.71,0,0,0,5.82-2.25c1.32-7.44,2.25-14.85,3.07-17.79.28-.54.42-.85,1.14-.77s.65.62.74,1.11c.38,2.18,1.63,13.39,2.25,16.82.59,3.24,1.06,4,4.48,3.76,1.79-.15,2.45-.89,2.79-2.64.12-.59-.37-12.07-.82-16.48-.21-1,0-1.07,1-1.53M85.23,77.29c-.87-2.54-.63-5.86,2.88-8.57s9.57-.19,10.55,4.15a8.27,8.27,0,0,1-1.27,6.65,5.93,5.93,0,0,1-5.5,2.64,6.94,6.94,0,0,1-6.66-4.87m15.11,29.79c-.36-1.78-1-13.56-1.33-13.57-.43,0-.53.33-.53.68,0,1.41.42,10.78.84,14,.61,4.66,1.5,16.81,1.28,18.22-.25,1.57-.86,1.93-2,2.08-1.69.2-2.28-.2-2.85-1.49S93.2,108.8,93,108a2,2,0,0,0-1.63-1.54,1.81,1.81,0,0,0-1.79.8c-1,1.37-3.26,17.63-3.43,18.68-.24,1.5-2,2.79-3.39,2.23S81,126.53,80.91,125a30,30,0,0,1,.32-3.77c.44-3.86,2.57-18.85,3.22-22.48.25-1.38.41-2.77.6-4.17,0-.34,0-.71-.37-.82s-.69.26-.8.65-1,7-1.51,10.3c-.12.74-.21,1.75-1.32,1.89-.78.09-2.41-.76-2.59-1.67a11.91,11.91,0,0,1,.22-2.21c.2-3.78,3-14.35,4-16a7.48,7.48,0,0,1,6-3.69c2,0,4.1.4,6.17.44a2.2,2.2,0,0,1,1.43.53,8.65,8.65,0,0,1,4.07,5.8c1,5.12,1.77,10.29,2.35,15.48a2.41,2.41,0,0,1-.87,2.37c-.8.6-1.29.45-1.5-.56"/><path class="cls-1" d="M105.09,108.11a4,4,0,0,0,2.22-1.92,5.23,5.23,0,0,0,.49-4.81c-.12-.39-.27-.82-.78-.71s-.43.57-.32,1a6,6,0,0,1-1.43,6,1.6,1.6,0,0,0-.18.52"/><path class="cls-1" d="M103.48,128.29c-.26,0-.52.16-.49.49s.34.4.59.38a15.74,15.74,0,0,0,4.73-.68,15.05,15.05,0,0,0-4.83-.19"/><path class="cls-1" d="M135,82.32c-1.26,0-2.44,1-3.11,2.81a40.77,40.77,0,0,0-.64,5.06,2.87,2.87,0,0,1-.83,2.45A14.5,14.5,0,0,1,126,94.85a8.42,8.42,0,0,0,.79-6.61,7.46,7.46,0,0,0-4.39-5.1c-4.56-1.71-8.78-.23-10.94,3.56a8.62,8.62,0,0,0-.74,5.73c.78,3.08,3,4.86,6.12,5.93a13.28,13.28,0,0,0-6.84,8.35,36,36,0,0,0-1.27,12.82c.15,1.92.79,3.49,3.08,3.66a1,1,0,0,1,1,1.3c0,.32,0,.64,0,1-.13,5.14-.3,10.28-.38,15.43,0,2.36,1,3.37,3.28,3.54a3.64,3.64,0,0,0,3.94-3c1-4.87,1-9.82,1.63-14.73a6.39,6.39,0,0,1,.86-3.08c.65-.93,1.55-.82,2.11.16a5.54,5.54,0,0,1,.43,2.41c.32,5,.21,10,.39,15,.07,2,.63,2.73,2.61,3,2.61.31,4.52-.77,4.39-3.78-.09-4.58.06-24.79.23-33.71a3.28,3.28,0,0,1,.86-2.25c1.37-1.75,2.72-3.51,4.1-5.25a5.26,5.26,0,0,0,1.18-3c.14-1.65.73-9.46.27-11.34A3.68,3.68,0,0,0,135,82.32m-23.29,8c0-3.89,3.12-6.68,7-6.77,5.23.2,7.54,4.19,7.33,7.47-.25,3.86-3.19,6.37-7.48,6.26a7,7,0,0,1-6.9-7m25.51,5.83A4.83,4.83,0,0,1,136,98.92c-1.44,1.85-2.84,3.74-4.26,5.6a3.2,3.2,0,0,0-.65,2.29c.28,5.14.07,31.27.06,33.68a2.52,2.52,0,0,1-2,2.69c-1.62.48-2.87-.51-3-2.27-.12-1.39-.13-2.79-.15-4.18s-.13-9.4-.24-12a1.21,1.21,0,0,1,0-.19c-.2-1.87-1-2.6-2.41-2.63a2.55,2.55,0,0,0-2.6,2.29c-.64,2.8-1.6,14.18-2.1,17a2.87,2.87,0,0,1-4.59,1.55,2.34,2.34,0,0,1-.61-1.93c0-2.86.36-16.82,1-20.92.34-4.44.69-5.91.79-8.89,0-.32.15-1.47-.17-1.49a.56.56,0,0,0-.53.45c-.22.8-1,8-1.28,10.77,0,.46,0,1.13-.66,1.21a1.85,1.85,0,0,1-1.9-.61,2.88,2.88,0,0,1-.49-1.22,30.14,30.14,0,0,1,1.6-14.79c1.14-3,3.45-4.95,6.13-6.51a1.1,1.1,0,0,1,.54-.16,25.67,25.67,0,0,0,6.37-1.83c2-.72,3.84-2,5.83-2.81A2.42,2.42,0,0,0,132,92.09a22.93,22.93,0,0,0,.35-3.39,10.21,10.21,0,0,1,.88-4.18c.71-1.33,2.45-1.32,3.68-.43.82.6.79,1.41.94,2.4.05,2.76-.62,8.27-.67,9.67"/><path class="cls-1" d="M142.46,84.87c0-1.53-2.31-4.25-3.82-4.67-.33-.09-.66-.12-.84.19s.07.57.35.73c2.2,1.26,3.45,3,3,5.82a2.08,2.08,0,0,0,1.27-2.07"/><path class="cls-1" d="M132,144c1.44.3,4.57.38,5.87-.23.09-.35-6-1.57-5.87.23"/><path class="cls-1" d="M64.41,98.12c3.06-3.39,2.94-8.3,1.06-10.84-2.22-3.36-8.91-3.47-10.76-2.08-3,2.24-4.4,4.12-3.94,7.78a8.3,8.3,0,0,0,2.3,4.69,14.38,14.38,0,0,0-3.76,2.23c-1.25,1.23-2.64,2.34-3.84,3.62-1.5,1.61-3.27,3-4.43,4.9a2.65,2.65,0,0,0,0,3A38.81,38.81,0,0,0,47.77,120a2.65,2.65,0,0,0,1.63.88c1.14.06,1.3.69,1.18,1.65s-.16,2.14-.21,3.2c-.2,4.35-.38,8.69-.61,13-.09,1.77,1.8,2.73,3.53,3a3.16,3.16,0,0,0,3.78-3.48c-.07-2.91.5-5.78.46-8.69,0-1.5.2-3,.31-4.52a3.67,3.67,0,0,1,.66-1.94,1,1,0,0,1,1.8.15,7.41,7.41,0,0,1,.57,1.8,64.6,64.6,0,0,1,.77,6.94c.21,2.26.38,4.53.7,6.77a3,3,0,0,0,2.81,2.85c1,.1,5,.3,4.6-4.57-.37-6.37-1.47-16.8-1.47-16.8a3.42,3.42,0,0,0,2.14-.62A20.2,20.2,0,0,0,76.13,112a3.29,3.29,0,0,0-.62-3.86c-3.56-3.51-6.48-7.72-11.1-10M53.5,87.83c1.72-2,4.53-2.92,8.09-1.88,2.63,1.38,3.7,1.45,4.1,6.69a5.83,5.83,0,0,1-6.26,6,9.8,9.8,0,0,1-4.33-1.14,6.35,6.35,0,0,1-1.6-9.62M74.92,112c-1.29,2.57-2.82,5.18-5.28,6.8-.36.24-2.72.49-2.62-1.61.14-.84,2.41-3.33,2.91-4.06a3.24,3.24,0,0,0,.77-1.9c0-1.51-2.76-3.87-4.28-3.77-1.12,0,0,6.31.3,7.42a4.06,4.06,0,0,0-.52,4.37,3.93,3.93,0,0,1,1.12,3.09c1.27,14,2.15,17.63-.6,17.91a2.16,2.16,0,0,1-2.75-.89,6.68,6.68,0,0,1-.69-2.54c-.32-2.89-.58-5.78-.89-8.67a19.86,19.86,0,0,0-.92-4.81c-.59-1.58-1.28-2.2-2.33-2a2.79,2.79,0,0,0-2.23,2.45,146.93,146.93,0,0,0-1,14.69c-.09,1.85-1.15,2.27-2.73,2.15-2.14,0-2-3.08-2-3.78h0c.22-5,.44-10.09.63-15.13,0-.72-.11-1.21.45-1.75a2.55,2.55,0,0,0,.54-3.39c-1.38-2-1.35-2.52-1.35-2.52.09-.43.28-4.86.23-5.3-.08-.69-.45-.92-1.19-.77-2.28.47-3.09,2.36-1.93,4.42.84,1.5,4.65,5,2.94,6.66-1,.95-1.94.74-3.1-.19-2.76-2.21-4.41-5-6.16-8a2.12,2.12,0,0,1,.47-2.59,50.71,50.71,0,0,1,4.67-4.94c1-1,2.14-2,3.23-2.91A5.24,5.24,0,0,1,56,99.14a13.31,13.31,0,0,0,5.59.36c2-.18,3.87-.1,5.44,1.33A87,87,0,0,1,74.46,109a2.5,2.5,0,0,1,.46,3m-7.75-3c2.87.7,2.89,2.79.41,5-.17-2-.41-3.5-.41-5m-16.91,3.36c-1.51-1.37-1.41-2.48.24-3.13a7.24,7.24,0,0,1-.24,3.13"/><path class="cls-1" d="M39.2,105.28c.44.27.22.64,0,1-1.56,2.26-1.25,4.62-.34,7,.15.39.46.76.11,1.41a9.89,9.89,0,0,1-1.82-4.54,6.55,6.55,0,0,1,1.11-4.48c.23-.32.55-.61.94-.36"/><path class="cls-1" d="M43.91,141.45c0,.38.46.52.86.57a25,25,0,0,0,6.48-.12c-2.32-.72-4.35-.62-6.3-1-.43-.07-1-.07-1,.5"/><path class="cls-1" d="M70,141.7c1.84,0,3.14,0,4.63-.14,0-1.06-6.21-1-4.63.14"/></g></g></svg>