<svg xmlns="http://www.w3.org/2000/svg" viewBox="0 0 113.35 131.51"><defs><style>.cls-1,.cls-3{fill:none;stroke-linejoin:round;stroke-width:5.07px;}.cls-1{stroke:#46a040;}.cls-2{fill:#df8aba;}.cls-3{stroke:#df8aba;}</style></defs><title>checklist</title><g id="Layer_2" data-name="Layer 2"><g id="Layer_1-2" data-name="Layer 1"><polyline class="cls-1" points="80.18 23.32 85.84 29.59 94.24 19.81 98.2 15.21"/><path class="cls-2" d="M36.64,119.22v8.88a.89.89,0,0,1-.9.88H4.53a2,2,0,0,1-2-2V115.37a2,2,0,0,1,2-2H34.64a2,2,0,0,1,2,2Z"/><path class="cls-1" d="M6.28,113.4H4.53a2,2,0,0,0-2,2V127a2,2,0,0,0,2,2H35.74a.89.89,0,0,0,.9-.88V115.37a2,2,0,0,0-2-2H6.28Z"/><path class="cls-1" d="M6.28,113.4C5.74,108.51,2.47,85.12,3,78.15S12.84,60.26,18.85,54"/><path class="cls-1" d="M18.85,68.83a43.55,43.55,0,0,0-2.93,6.56c-1,4.23.41,10.54,2.93,13.8,1.51,2,3.44,2.83,5.5,1.48,1.13-.74,2.42-1.23,3.23-2.3,2.16-2.88,2.68-6.62,2.9-10.2a54.36,54.36,0,0,1,2-11.06c.71-2.51,6.81-5.2,7.27-.81.22,2,.18,25-1.16,32.52S32.3,113.4,32.3,113.4"/><polyline class="cls-1" points="18.85 89.19 18.85 68.83 18.85 53.99 18.85 2.54 110.82 2.54 110.82 119.22 36.64 119.22"/><polygon class="cls-1" points="94.24 35.9 75.64 35.9 75.64 17.54 94.24 17.54 94.24 19.81 94.24 35.9"/><polygon class="cls-1" points="94.24 71.22 75.64 71.22 75.64 52.87 94.24 52.87 94.24 55.13 94.24 71.22"/><polygon class="cls-1" points="94.24 106.55 75.64 106.55 75.64 88.19 94.24 88.19 94.24 90.46 94.24 106.55"/><polyline class="cls-3" points="80.18 58.64 85.84 64.91 94.24 55.13 98.2 50.53"/><polyline class="cls-3" points="80.18 93.96 85.84 100.23 94.24 90.46 98.2 85.86"/></g></g></svg>