<svg xmlns="http://www.w3.org/2000/svg" xmlns:xlink="http://www.w3.org/1999/xlink" viewBox="0 0 155.48 142.96"><defs><style>.cls-1,.cls-4,.cls-5,.cls-6{fill:none;}.cls-2{fill:#dbe341;}.cls-3{clip-path:url(#clip-path);}.cls-4{stroke:#c4da5a;}.cls-4,.cls-5{stroke-linejoin:round;}.cls-4,.cls-5,.cls-6{stroke-width:5.58px;}.cls-5,.cls-6{stroke:#ef7521;}.cls-6{stroke-miterlimit:10;}</style><clipPath id="clip-path" transform="translate(-6.67 -22.43)"><rect class="cls-1" width="74.92" height="164.79"/></clipPath></defs><title>checklist-left</title><g id="Layer_2" data-name="Layer 2"><g id="Layer_1-2" data-name="Layer 1"><polygon class="cls-2" points="32.24 2.79 32.24 31.67 2.79 31.67 32.24 2.79"/><g class="cls-3"><path class="cls-2" d="M157.81,66.51a5.2,5.2,0,0,1,0,7.44l-3.14,3.14-4.56,4.39-15.57-16,7.35-7.15a5.43,5.43,0,0,1,7.56,0Z" transform="translate(-6.67 -22.43)"/><polygon class="cls-2" points="127.85 42.99 143.41 59.05 101.13 100.39 85.18 84.74 122.98 47.76 127.85 42.99"/><polyline class="cls-4" points="29.25 104.93 35.35 111.22 49.42 93.98"/><polyline class="cls-5" points="45.88 109.66 45.88 119.01 23.34 119.01 23.34 95 39.65 95"/><polyline class="cls-4" points="29.25 60.57 35.35 66.86 49.42 49.62"/><polyline class="cls-5" points="45.88 65.32 45.88 74.65 23.34 74.65 23.34 50.65 39.65 50.65"/><line class="cls-5" x1="113.53" y1="46.02" x2="113.53" y2="56.85"/><polyline class="cls-5" points="32.24 2.79 113.53 2.79 113.53 46.02"/><line class="cls-6" x1="85.18" y1="84.74" x2="101.13" y2="100.38"/><polyline class="cls-5" points="2.79 31.67 32.24 31.67 32.24 2.79 2.79 31.67 2.79 140.17 113.53 140.17 113.53 100.96"/><path class="cls-6" d="M154.65,77.09l3.14-3.15a5.19,5.19,0,0,0,0-7.43l-8.38-8.21a5.43,5.43,0,0,0-7.56,0l-7.35,7.15,15.57,16L107.8,122.82,86.22,128l5.63-20.87,37.81-37" transform="translate(-6.67 -22.43)"/></g></g></g></svg>