<svg xmlns="http://www.w3.org/2000/svg" viewBox="0 0 138.77 136.15"><defs><style>.cls-1{fill:#f9be00;}.cls-2,.cls-3{fill:none;stroke:#46a040;stroke-linecap:round;stroke-width:4.73px;}.cls-2{stroke-linejoin:round;}.cls-3{stroke-miterlimit:10;}</style></defs><title>clock</title><g id="Layer_2" data-name="Layer 2"><g id="Layer_1-2" data-name="Layer 1"><path class="cls-1" d="M136.25,93a1.07,1.07,0,0,1,0,1.13c-1.51,2.34-4.52,6-6.8,6.46V108c2.28.46,5.29,4.12,6.8,6.45a1.09,1.09,0,0,1,0,1.14l-4.05,6.9a1.11,1.11,0,0,1-1,.55c-2.81-.12-7.54-.85-9.08-2.56l-6.51,3.69c.73,2.17-1,6.56-2.29,9a1.1,1.1,0,0,1-1,.59H104.2a1.11,1.11,0,0,1-1-.59c-1.3-2.45-3-6.84-2.28-9l-6.51-3.69c-1.55,1.71-6.28,2.44-9.09,2.56a1.1,1.1,0,0,1-1-.55l-4.06-6.9a1.09,1.09,0,0,1,0-1.14c1.52-2.33,4.53-6,6.81-6.45v-7.38c-2.28-.47-5.29-4.12-6.81-6.46a1.07,1.07,0,0,1,0-1.13l4.06-6.91a1.11,1.11,0,0,1,1-.54c2.81.12,7.54.85,9.09,2.56l6.51-3.7c-.74-2.16,1-6.56,2.28-9a1.13,1.13,0,0,1,1-.59h8.11a1.12,1.12,0,0,1,1,.59c1.3,2.45,3,6.85,2.29,9l6.51,3.7c1.54-1.71,6.27-2.44,9.08-2.56a1.12,1.12,0,0,1,1,.54Zm-20.13,11.28a7.87,7.87,0,1,0-7.86,7.73,7.8,7.8,0,0,0,7.86-7.73"/><path class="cls-2" d="M100.93,84.45c-.74-2.16,1-6.56,2.28-9a1.12,1.12,0,0,1,1-.59h8.11a1.12,1.12,0,0,1,1,.59c1.3,2.45,3,6.85,2.29,9l6.51,3.7c1.54-1.71,6.27-2.44,9.08-2.56a1.12,1.12,0,0,1,1,.54L136.25,93a1.09,1.09,0,0,1,0,1.14c-1.51,2.33-4.52,6-6.8,6.45V108c2.28.46,5.29,4.12,6.8,6.45a1.09,1.09,0,0,1,0,1.14l-4.05,6.9a1.11,1.11,0,0,1-1,.55c-2.81-.12-7.54-.85-9.08-2.56l-6.51,3.69c.73,2.17-1,6.56-2.29,9a1.1,1.1,0,0,1-1,.59H104.2a1.1,1.1,0,0,1-1-.59c-1.3-2.45-3-6.84-2.28-9l-6.51-3.69c-1.55,1.71-6.28,2.44-9.09,2.56a1.1,1.1,0,0,1-1-.55l-4.06-6.9a1.09,1.09,0,0,1,0-1.14c1.52-2.33,4.53-6,6.81-6.45v-7.38c-2.28-.47-5.29-4.12-6.81-6.45a1.09,1.09,0,0,1,0-1.14l4.06-6.91a1.11,1.11,0,0,1,1-.54c2.81.12,7.54.85,9.09,2.56Z"/><path class="cls-2" d="M100.39,104.32a7.87,7.87,0,1,0,7.87-7.73A7.8,7.8,0,0,0,100.39,104.32Z"/><path class="cls-3" d="M74,121a62.48,62.48,0,0,1-10.49.88c-33.74,0-61.09-26.75-61.09-59.74S29.72,2.37,63.46,2.37s61.09,26.74,61.09,59.74a58.55,58.55,0,0,1-1.82,14.53"/><line class="cls-3" x1="63.46" y1="9.99" x2="63.46" y2="12.56"/><line class="cls-3" x1="25.95" y1="25.25" x2="27.8" y2="27.07"/><line class="cls-3" x1="10.41" y1="62.11" x2="13.03" y2="62.11"/><line class="cls-3" x1="25.95" y1="98.96" x2="27.8" y2="97.14"/><line class="cls-3" x1="63.46" y1="114.23" x2="63.46" y2="111.65"/><line class="cls-3" x1="116.5" y1="62.11" x2="113.88" y2="62.11"/><line class="cls-3" x1="100.97" y1="25.25" x2="99.11" y2="27.07"/><line class="cls-3" x1="63.46" y1="63.45" x2="84.52" y2="38.5"/><line class="cls-3" x1="63.46" y1="63.45" x2="40.21" y2="24.6"/></g></g></svg>