<svg xmlns="http://www.w3.org/2000/svg" viewBox="0 0 56.7 25.74"><defs><style>.cls-1{fill:#fff;}</style></defs><title>logo</title><g id="Layer_2" data-name="Layer 2"><g id="Layer_1-2" data-name="Layer 1"><path class="cls-1" d="M46.59,5.52H43.37V8.73h3.22a1.38,1.38,0,0,1,0,2.76H43.37v3.22h3.22a4.6,4.6,0,0,0,0-9.19m-18.34,17A9.64,9.64,0,0,0,37,17h4.1v5.52h2.3V17h3.22a6.89,6.89,0,0,0,0-13.78H41.07v8.27H37.8a9.65,9.65,0,0,0-9.55-8.27H16.93L5.68,22.52H8.37L11.58,17H23.15v5.52ZM56.7,10.11A10.11,10.11,0,0,1,46.59,20.22v5.52H37.86v-4.3a12.89,12.89,0,0,1-9.61,4.3H19.93V20.22h-6.5l-3.22,5.52H0L15,0H28.25a12.86,12.86,0,0,1,9.61,4.31V0h8.73A10.11,10.11,0,0,1,56.7,10.11M19.93,5.52v6H14.8l-1.87,3.22H23.15V5.52ZM35.6,12.87a7.35,7.35,0,0,1-7.35,7.35h-2.8V17h2.8a4.14,4.14,0,1,0,0-8.27h-2.8V5.52h2.8a7.35,7.35,0,0,1,7.35,7.35"/></g></g></svg>