<svg xmlns="http://www.w3.org/2000/svg" viewBox="0 0 88.38 85.3"><defs><style>.cls-1{fill:#b1e1fa;}.cls-2,.cls-3{fill:none;stroke:#0071bc;stroke-linejoin:round;stroke-width:3px;}.cls-3{stroke-linecap:round;}</style></defs><title>moving-gear</title><g id="Layer_2" data-name="Layer 2"><g id="Layer_1-2" data-name="Layer 1"><path class="cls-1" d="M70.8,53.61l.83,5c-.78.75-2.57,2.09-3.6,2l-1.44,4.86c.91.47,1.69,2.56,1.94,3.61l-3.45,3.78c-1.08-.14-3.25-.69-3.82-1.55l-4.73,1.91c.2,1-1,2.91-1.64,3.75l-5.13-.31c-.56-.92-1.48-3-1.16-3.92l-4.46-2.48c-.67.78-2.9,1.07-4,1.07l-2.95-4.17c.37-1,1.4-3,2.37-3.34l-.83-5c-1,0-2.65-1.58-3.32-2.41l1.45-4.89c1-.34,3.23-.77,4.11-.25l3.43-3.76c-.62-.81-.41-3-.17-4.08L49,41.52c.91.59,2.63,2,2.76,3l5.11.31c.26-1,2.14-2.21,3.12-2.68l4.48,2.49c.11,1.07,0,3.3-.67,4l2.94,4.15c.93-.42,3.07.29,4,.75M56.48,66.43A8,8,0,0,0,60.92,56,8.11,8.11,0,0,0,50.38,51.6,8,8,0,0,0,46,62a8.11,8.11,0,0,0,10.53,4.4"/><path class="cls-2" d="M44.42,47.52c-.62-.81-.41-3-.17-4.08L49,41.52c.91.59,2.63,2,2.76,3l5.11.31c.26-1,2.14-2.21,3.12-2.68l4.48,2.49c.11,1.07,0,3.3-.67,4l2.93,4.15c.94-.42,3.08.29,4.06.75l.83,5c-.78.75-2.57,2.09-3.6,2l-1.45,4.86c.92.47,1.7,2.56,2,3.61l-3.45,3.78c-1.08-.14-3.25-.69-3.82-1.55l-4.74,1.91c.21,1-1,2.91-1.63,3.75l-5.13-.31c-.56-.92-1.48-3-1.16-3.92l-4.46-2.48c-.67.78-2.9,1.07-4,1.07l-2.95-4.17c.37-1,1.4-3,2.37-3.34l-.83-5c-1,0-2.65-1.58-3.33-2.41l1.46-4.89c1-.34,3.23-.78,4.11-.25Z"/><path class="cls-2" d="M46,62a8.11,8.11,0,0,0,10.53,4.4A8,8,0,0,0,60.92,56,8.1,8.1,0,0,0,50.38,51.6,8,8,0,0,0,46,62Z"/><path class="cls-1" d="M84.44,16.38l2.44,4.18c-.44.88-1.59,2.58-2.51,2.79V28c.91.2,2.06,1.91,2.5,2.78L84.43,35c-1,.06-3.05-.07-3.69-.75l-4.08,2.32c.28.89-.64,2.73-1.18,3.54H70.6c-.54-.82-1.46-2.66-1.18-3.55L65.35,34.2c-.64.69-2.7.82-3.69.75l-2.43-4.18c.44-.88,1.59-2.58,2.51-2.79V23.33c-.92-.21-2.06-1.91-2.5-2.79l2.44-4.18c1-.06,3.05.07,3.69.76l4.07-2.33c-.28-.89.64-2.72,1.19-3.54H75.5c.55.81,1.47,2.65,1.19,3.54l4.07,2.33c.63-.68,2.7-.81,3.68-.75m-5.73,9.29a5.66,5.66,0,1,0-5.66,5.6,5.64,5.64,0,0,0,5.66-5.6"/><path class="cls-2" d="M69.44,14.79c-.28-.89.64-2.72,1.19-3.54H75.5c.55.81,1.47,2.65,1.19,3.54l4.07,2.33c.63-.68,2.7-.81,3.68-.75l2.44,4.18c-.44.88-1.59,2.58-2.51,2.79V28c.91.2,2.06,1.91,2.5,2.78L84.43,35c-1,.06-3.05-.07-3.69-.75l-4.08,2.32c.28.89-.64,2.73-1.18,3.54H70.6c-.54-.82-1.46-2.66-1.18-3.55L65.35,34.2c-.64.69-2.7.82-3.69.75l-2.43-4.18c.44-.88,1.59-2.58,2.51-2.79V23.33c-.92-.21-2.06-1.91-2.5-2.79l2.44-4.18c1-.06,3.05.07,3.69.76Z"/><path class="cls-2" d="M67.4,25.66a5.66,5.66,0,1,0,5.66-5.6A5.62,5.62,0,0,0,67.4,25.66Z"/><path class="cls-1" d="M17.33,83.8H13a2.73,2.73,0,0,1-2.75-2.63l-1-26.78H5.43a2.81,2.81,0,0,1-2.9-2.59l-1-24.48a5.2,5.2,0,0,1,1.63-4A6.84,6.84,0,0,1,7.65,21.7h5.12l4.56,7.92,4.56-7.92,26.25-1.88c4.37-.27,4.65,4.5-1.64,6.66l-20.23,7.4L24.4,81.17a2.73,2.73,0,0,1-2.75,2.63Z"/><path class="cls-2" d="M24.37,8.42a7,7,0,0,1-14.08,0,7,7,0,0,1,14.08,0Z"/><path class="cls-3" d="M9.26,54.39H5.43a2.81,2.81,0,0,1-2.9-2.59l-1-24.48a5.23,5.23,0,0,1,1.62-4A6.88,6.88,0,0,1,7.65,21.7h5.12l4.56,7.92,4.56-7.92,26.25-1.88c4.37-.27,4.65,4.5-1.64,6.66l-20.23,7.4L24.4,81.17a2.73,2.73,0,0,1-2.75,2.63H13a2.73,2.73,0,0,1-2.75-2.63l-1-26.78L8.72,33.21"/><polyline class="cls-3" points="17.33 48.81 17.33 66.69 17.33 83.8"/></g></g></svg>