<svg xmlns="http://www.w3.org/2000/svg" viewBox="0 0 101.73 112.99"><defs><style>.cls-1,.cls-3{fill:none;stroke:#0071bc;stroke-linecap:round;stroke-linejoin:round;}.cls-1{stroke-width:3px;}.cls-2{fill:#faa21d;}.cls-3{stroke-width:3.9px;}</style></defs><title>thinking-lightbulb</title><g id="Layer_2" data-name="Layer 2"><g id="Layer_1-2" data-name="Layer 1"><line class="cls-1" x1="79.09" y1="9.54" x2="79.09" y2="13.64"/><line class="cls-1" x1="91.64" y1="13.57" x2="89.33" y2="16.93"/><line class="cls-1" x1="99.65" y1="24.21" x2="95.86" y2="25.61"/><line class="cls-1" x1="100.23" y1="37.61" x2="96.33" y2="36.55"/><line class="cls-1" x1="66.54" y1="13.57" x2="68.85" y2="16.93"/><line class="cls-1" x1="58.53" y1="24.21" x2="62.32" y2="25.61"/><line class="cls-1" x1="57.95" y1="37.61" x2="61.85" y2="36.55"/><path class="cls-2" d="M79.31,46.69h-5c-1.58-6.48-4.2-8-5.53-12a11.41,11.41,0,0,1-.49-3.33,11,11,0,1,1,22,0,11.41,11.41,0,0,1-.49,3.33c-1.33,4.05-3.94,5.55-5.53,12H79.87a3.84,3.84,0,0,0-.48,0"/><path class="cls-1" d="M79.31,46.69h-5c-1.58-6.48-4.2-8-5.53-12a11.41,11.41,0,0,1-.49-3.33,11,11,0,1,1,22,0,11.41,11.41,0,0,1-.49,3.33c-1.33,4.05-3.94,5.55-5.53,12H79.87a3.84,3.84,0,0,0-.48,0"/><line class="cls-1" x1="74.83" y1="51.77" x2="83.74" y2="51.77"/><line class="cls-1" x1="75.72" y1="56.84" x2="82.85" y2="56.84"/><path class="cls-2" d="M11.68,72.06H7.11A3.71,3.71,0,0,1,3.3,68.63L2,36.17a6.91,6.91,0,0,1,2.12-5.25A9,9,0,0,1,10,28.72h5.82l6,10.5,6-10.5h5.82a9,9,0,0,1,5.94,2.2,6.91,6.91,0,0,1,2.12,5.25L40.36,68.63a3.73,3.73,0,0,1-3.82,3.43H32l-.88,35.49A3.6,3.6,0,0,1,27.5,111H16.15a3.6,3.6,0,0,1-3.6-3.49Z"/><path class="cls-2" d="M31.06,11.12A9.24,9.24,0,1,1,21.82,2a9.2,9.2,0,0,1,9.24,9.17"/><path class="cls-3" d="M31.06,11.12A9.24,9.24,0,1,1,21.82,2,9.2,9.2,0,0,1,31.06,11.12Z"/><path class="cls-3" d="M15.84,28.72h0l6,10.5,6-10.5h5.82a9,9,0,0,1,5.94,2.2,6.91,6.91,0,0,1,2.12,5.25L40.36,68.63a3.73,3.73,0,0,1-3.82,3.43H32"/><path class="cls-3" d="M11.68,72.06H7.11A3.71,3.71,0,0,1,3.3,68.63L2,36.17a6.91,6.91,0,0,1,2.12-5.25A9,9,0,0,1,10,28.72h5.82"/><path class="cls-3" d="M32.67,44,32,72.06l-.88,35.49A3.6,3.6,0,0,1,27.5,111H16.15a3.6,3.6,0,0,1-3.6-3.49l-.87-35.49L11,44"/><polyline class="cls-3" points="21.82 64.66 21.82 88.36 21.82 111.04"/></g></g></svg>