<svg xmlns="http://www.w3.org/2000/svg" viewBox="0 0 176.81 145.26"><defs><style>.cls-1{fill:#fff;}</style></defs><title>usa-side</title><g id="Layer_2" data-name="Layer 2"><g id="Layer_1-2" data-name="Layer 1"><path class="cls-1" d="M23.4,122.41l-2.8,0a1.78,1.78,0,0,1,.13,1.09h.42l2.51,0a2.13,2.13,0,0,1-.26-1.1"/><path class="cls-1" d="M48.91,122.92a2.08,2.08,0,0,1,.12-.32c-5.64,0-12.15-.09-18.69-.14a2.2,2.2,0,0,1,.15.72,1.56,1.56,0,0,1,0,.43l6.76.1c2.68,0,5.35.07,8,.09l3.6,0a2,2,0,0,1,.06-.9"/><path class="cls-1" d="M79.25,123.82a2,2,0,0,1,.43-1.22l-11.81.06a2.33,2.33,0,0,1,.11,1.17H79.25"/><path class="cls-1" d="M93.14,123.81a2.52,2.52,0,0,1-.25-1,1.56,1.56,0,0,1,0-.31l-6.79,0a2.51,2.51,0,0,1,.24.94,3,3,0,0,1,0,.31h6.8"/><path class="cls-1" d="M116.58,122.92a2.09,2.09,0,0,1,.17-.46c-5,0-11,0-17.28.05a2.54,2.54,0,0,1,.13,1.29l12.06,0h4.88a2.55,2.55,0,0,1,0-.83"/><path class="cls-1" d="M128,123.73a2.36,2.36,0,0,1-.2-.88,2,2,0,0,1,0-.35c-1.07,0-2.59,0-4.43,0a1.78,1.78,0,0,1,.12.29,1.85,1.85,0,0,1,0,1H128"/><path class="cls-1" d="M134.1,122.6a2.53,2.53,0,0,1,.08,1.13h42.63v-1.06c-10.3.09-31.06.07-42.71-.05"/><path class="cls-1" d="M105.26,12.81a.94.94,0,0,0-1-.14,18.9,18.9,0,0,1-10.12-.14A113.69,113.69,0,0,1,71,3.39a29.35,29.35,0,0,0-21-2.5,9.24,9.24,0,0,0-3.44,1.5c-.86.66-1.39.64-2.27-.13a4.42,4.42,0,0,0-5.94-.44c-.69.44-.75,3-.88,3.64Q34.1,22.51,30.6,39.57q-2.48,12-5,24a25.32,25.32,0,0,1-1.14,4.89c-2.15-3.7-9.58-4.21-12.62-1.4a9.19,9.19,0,0,0,.72,14.27c-1.35,1.18-1.66,2.81-2.33,4.24a38.53,38.53,0,0,0-2.82,8.77C7,96.44,7.25,97.42,9,98.26c1.41.69,1.48,1.67,1.28,2.89a220.47,220.47,0,0,0-2.4,24.6c0,1.22.31,5.23,5.61,3.17,0,0,.64.13,2.06.53a3.63,3.63,0,0,0,4.63-2.94c.45-2.12.81-4.26,1.25-6.38.12-.61.44-1.67.74-3.13,0,0,.71,6.65.93,8.59.24,2.23.86,3.66,3.05,4.11a5.84,5.84,0,0,0,3.6-.55,3.26,3.26,0,0,0,1.23-2.4c.08-1.63-1.28-14.74-2.11-20a3,3,0,0,1,.95-2.81A24.82,24.82,0,0,0,32.92,100a6.19,6.19,0,0,0,.7-5.8c-.54-1.51-1-3.06-1.57-4.56-.71-1.82-1-3.83-2.28-5.39-.69-.87,1.59-13.5,2.69-18.91,1.44-7,3.07-14.07,4.25-21.17a8,8,0,0,1,4.57-6.45c7.7-4.3,20.07-1.1,25.13.67,5.21,1.83,10.36,3.82,15.57,5.65,6.64,2.34,13.15,2.32,19.42-1.28,1.07-.62,1.12-1,0-1.67a10.23,10.23,0,0,1-3.05-2.81,47.87,47.87,0,0,1-3.62-6.13c-.74-1.34-1.87-2.45-2.4-4.09,2.6-.83,4.26-2.9,6.19-4.58a22.6,22.6,0,0,0,6.71-9.74c.11-.32.33-.64,0-.95M10.91,71c2.27-5,7.16-5.39,11-3.1a4.53,4.53,0,0,1,1.9,4.42c-.31,1.5-.63,3-.94,4.5-.67,3.15-2.19,4.39-5.37,4.4A7.07,7.07,0,0,1,10.91,71m-.68,26.46c-1.7-.84-1.83-1.32-1.48-3.2a40.68,40.68,0,0,1,3.53-10.27,2.56,2.56,0,0,1,2.64-1.65,10.2,10.2,0,0,0,6.94-1c-.69,3.91-1.34,7.46-2.25,11-.16.63-.53.71-1.09.63-1.74-.24-2.14-.68-2.18-2.52,0-.35,0-.76-.4-.85s-.51.35-.6.67-.19.67-.28,1c-.35,1.39-.25,1.64,1.14,2.21s2.88,1,4.29,1.65c1.9.8,2.38,1,1.59,3.53a2.06,2.06,0,0,1-2,1.58,26.78,26.78,0,0,1-9.8-2.78m2.58,29.47c-.13,1.16-.88,1.29-1.73,1.4A1.45,1.45,0,0,1,9.26,127c-.08-.48-.1-1-.14-1.46.1-8,1.22-16,2.26-23.93,0-.35.11-.69.15-1,.1-.71.48-.94,1.17-.73,1.34.41,2.66.84,4,1.18,1,.24,1.18.71,1,1.67-.8,3.67-1.59,7.35-2.28,11-.81,4.39-2.09,8.69-2.59,13.13m17.08-1.5a2.77,2.77,0,0,1-3.59,3.18c-1.27-.25-1.75-1.11-1.88-3-.29-4-1.06-8-1.32-12.08-.15-2.31.64-4.55,1.21-6.78.24-1,1-.71,1.71-.63s1.59-.11,1.7,1c.15,1.46,1.34,12.23,2.17,18.28m-.31-38.8c.94,2.62,1.88,5.25,2.76,7.89a5.82,5.82,0,0,1-1,5.88A37.09,37.09,0,0,1,28,104.06a2.05,2.05,0,0,1-3.14.11,2.23,2.23,0,0,1-.51-3.29c1-1.41,2.14-2.75,3.21-4.12.25-.33.56-.71.22-1.11s-1,.43-1.72,1.45c.68-3.37,3.37-11,3.54-10.52m4.65-35.35Q29.58,74,25,96.85a6.59,6.59,0,0,1-1.7,3.3,2.76,2.76,0,0,0-.43,3.63,2.82,2.82,0,0,1,.32,2.21c-1.4,6.78-2.78,13.56-4.19,20.33-.35,1.65-.89,2.05-2.43,2-2.25-.1-2.76-.63-2.32-2.85.27-1.37.54-2.75.82-4.12.07-.36.14-.73.22-1.09.22-1.11.45-2.23.68-3.34l.06-.32c.41-2,.83-4,1.24-6,.16-.79.33-1.59.49-2.38.35-1.71.71-3.42,1-5.14.19-1,.54-1.7,1.77-1.54a1.1,1.1,0,0,0,.48,0l.13,0,.05,0,.08,0,.06,0,.07,0,0,0,.08,0,0,0,.11-.09.05,0a.23.23,0,0,1,.07-.07l0,0,.07-.06,0,0,.06-.07,0,0,.1-.11,0,0,.07-.09,0,0,.06-.08,0,0,.06-.08,0,0,.08-.12a5.8,5.8,0,0,0,1-3.16.48.48,0,0,0,0-.17v0a.76.76,0,0,0,0-.15v0a1.24,1.24,0,0,0,0-.16.06.06,0,0,0,0,0,.65.65,0,0,0,0-.13,0,0,0,0,0,0,0,.35.35,0,0,0-.06-.14.08.08,0,0,0,0-.05l0-.11,0,0a.83.83,0,0,0-.08-.12l0-.06-.06-.08,0,0L23,95.39,23,95.33a.12.12,0,0,1,0,0l-.06-.06-.07-.06,0,0a3,3,0,0,0-.71-.49C20.79,94,20.74,93.21,21,92c1.77-9,3.45-18.1,5.45-27.11,2.61-11.72,4.92-23.52,7.35-35.28q2.58-12.42,5.15-24.83c0-.14.07-.6.1-.73a2.16,2.16,0,0,1,2.42-1.85h0a2.42,2.42,0,0,1,.45.1h0l.45.18h0l.19.11,0,0,.22.13,0,0,.18.13.05,0,.21.17c.59.52.44,1.11.32,1.73C43,8,42.43,11.11,41.79,14.26q-3.76,18.5-7.56,37m59.39-25a5.09,5.09,0,0,1-3.39,1.35c0,.27-.11.48-.06.53a13.8,13.8,0,0,1,3.33,4.56h0c.17.31.33.62.49.93s.3.59.46.88c1.51,2.77,3,5.54,5.59,7.42-.24.82-.87,1-1.44,1.21a17.83,17.83,0,0,1-7.17,1.29,27.76,27.76,0,0,1-9.25-1.63C77.12,40.88,72.06,39.08,67,37.19c-2.92-1.08-10.34-3.12-16.79-2.85A21.23,21.23,0,0,0,40.14,37c-.59.34-1.16.72-2,1.23.16-1.15.23-2,.41-2.9.13-.69.27-1.37.41-2.05,1.77-8.76,3.57-17.53,5.32-26.3a4.23,4.23,0,0,1,1.59-2.59A12.57,12.57,0,0,1,51.35,1.9c7-1.53,13.52-.13,19.86,3.1,3.46,1.77,7.09,3.27,10.71,4.75C85,11,88.21,12.06,91.4,13.06a24.43,24.43,0,0,0,12,1.09c-.27,4-7.16,9.89-9.82,12"/><path class="cls-1" d="M103.19,45.8c-2.78,1.94-5.71,3.18-9.18,2a.65.65,0,0,0-.88.31c-.18.4.09.65.42.81a4.71,4.71,0,0,0,1.8.51,12.23,12.23,0,0,0,7.34-2c.5-.32,1.09-.65,1-1.56-.28,0-.45-.09-.53,0"/><path class="cls-1" d="M6.22,100a6.68,6.68,0,0,1-2.35-3.89c-.24-1.54.76-2.94.54-4.55a5.28,5.28,0,0,0-1.79,5c.41,2,1.36,3,3.6,3.42"/><path class="cls-1" d="M.77,128.73c-.36,0-.74.17-.77.56s.37.55.73.55c2,0,4.05,0,6.07,0,.38,0,.57-.31.61-.68a29,29,0,0,0-6.64-.39"/><path class="cls-1" d="M36.91,93.41c-.52.11-.62.54-.51,1a8,8,0,0,1-1,6.43,3.87,3.87,0,0,0,.84-.22,3.19,3.19,0,0,0,.59-.57c1.38-1.92,1.24-4,.72-6.18a.52.52,0,0,0-.61-.43"/><path class="cls-1" d="M36,129.26c-1.56-.1-4.76-1-5.43.23,1.69.69,7.11.35,5.43-.23"/><path class="cls-1" d="M63.94,97.59a10.56,10.56,0,0,0,2.66-10.1,8.16,8.16,0,0,0-6.37-5.86,13.2,13.2,0,0,0-4.65.11c-6.62,1.35-8.25,7.82-5.95,12.59a13.69,13.69,0,0,0,3.4,4,25.23,25.23,0,0,0-13.52,11.21c-1.48,2.58-1,4.32,1.42,6.07a9.79,9.79,0,0,0,1,.65q2.84,1.73,5.68,3.42c.59.35,1.17.64,1,1.51-.69,4.38-.7,8.81-1.23,13.21-.28,2.32-.47,4.67-.54,7-.06,2,1.1,3.08,3.09,3.17,2.38.11,3.77-.46,4.75-2.65.85-1.91,3-14.48,3.4-16.1.14-.51.37-1.92,1-1.86s.51.54.55,1a37.28,37.28,0,0,1,.4,4.2,99,99,0,0,0,.82,11.42c.31,3.15,1.49,4.3,4.44,4.35a3.68,3.68,0,0,0,3.61-3c.12-1.8-.49-20.21-.54-20.54L70,120a31.62,31.62,0,0,0,5.84-7.63,4.42,4.42,0,0,0,0-5.07c-2.64-4.26-8.15-8.61-11.87-9.7M50,91.45c-.91-4.92,2.61-8.88,7.75-8.87,5.08-.26,9.23,4.14,7.8,9.93a7.2,7.2,0,0,1-7.63,5.6C53,97.92,50.77,95.53,50,91.45m25,20.09a35.32,35.32,0,0,1-5.6,7.58c-1.2,1.26-3.8,1-4.17-.65-.47-2.19,1.36-3.56,4.62-7.07a1.88,1.88,0,0,0-.41-2.05,2.26,2.26,0,0,0-2.29-.25,1.08,1.08,0,0,0-.76,1.08,4.81,4.81,0,0,0,.07,1l.38,1.86c-3.57,3.55-3.31,6.14-1.24,7.39l1.54.94c.47,5.25.73,19.32.55,20.64s-1.4,1.7-2.69,1.62c-2.31-.15-2.65-1-2.95-3.27-.4-3.05-1.08-13.61-1.27-15.81a3.39,3.39,0,0,0-.31-1.16,1.57,1.57,0,0,0-2.65-.4c-.59.67-3.62,16.8-4.13,18.32a3.27,3.27,0,0,1-4.33,1.94,2,2,0,0,1-1.33-2.12c.1-1.88,1-13.9,1.54-18,.16-1.34.25-2.43.25-2.43a4.16,4.16,0,0,0,1.32-7.32,1.34,1.34,0,0,1-.51-1.8,2.4,2.4,0,0,0,.07-.6c.1-1.64-.22-2.37-1.09-2.45a3.36,3.36,0,0,0-2.52,2c-.22.79.29,1.3.8,1.71.68.53,1.16.94,1.87,1.43,1.35.94,2.88,1.87,2,4.16-.46,1.2-1.5,1.34-2.75,1a8.48,8.48,0,0,1-2.16-1c-1.62-1-3.24-1.89-4.81-2.91-2.29-1.49-2.73-2.93-1.33-5.26A21.28,21.28,0,0,1,49.89,101a10.74,10.74,0,0,1,6.77-1.67,16.13,16.13,0,0,0,4.05-.17c2.77-1.16,4.57.34,6.81,1.49a20.13,20.13,0,0,1,7.53,7.52,3.11,3.11,0,0,1,0,3.4M68,110.25a.6.6,0,0,1,.53.07.76.76,0,0,1,.22,1,1.06,1.06,0,0,1-.75.73,1.45,1.45,0,0,1-.28-1c0-.33,0-.68.28-.87m-18.25.51c-.08.38,0,.89-.5.89a.74.74,0,0,1-.8-.69.84.84,0,0,1,.74-1c.58-.08.47.46.56.77"/><path class="cls-1" d="M36.26,105.5c-.33-.19-.61,0-.87.24-1.77,1.84-2.07,6-.56,8,.27.35.53.79,1.18.77.1-.16.17-.23.15-.27-1.25-2.67-1.62-5.31.21-7.91.21-.29.25-.64-.11-.85"/><path class="cls-1" d="M37,144.45c2.07,1,6.59,1.07,8.12.29a19.16,19.16,0,0,0-8.12-.29"/><path class="cls-1" d="M70.36,144c-.34.06-.66.18-.61.62s.37.36.62.36c1.25,0,2.5,0,3.75,0l0-.48a5.07,5.07,0,0,0-3.78-.51"/><path class="cls-1" d="M110.85,107.5a4.38,4.38,0,0,1,0-.93,7.06,7.06,0,0,0-1.5-6.62,6,6,0,0,1-.5-.63c-.22-.36-.33-.81,0-1.1s.64,0,.89.26a7.61,7.61,0,0,1,2.61,6.69,3.14,3.14,0,0,1-1.49,2.33"/><path class="cls-1" d="M106.19,133c.5,0,1-.28,1,.39s-.47.71-1,.71a18.83,18.83,0,0,1-5.83-.53c.06-.57.34-.51.59-.54a23,23,0,0,1,5.25,0"/><path class="cls-1" d="M78.07,134.35c-1.16.22-4.46-.08-4.36-.62s.51-.32.82-.37c1.32-.21,2.69.38,3.93-.23.08.64.45,1.06-.39,1.22"/><path class="cls-1" d="M78.46,132.62v0h0c.79,1.44,2.51,1.45,3.47,1.42,2-.06,2.86-.57,3.38-2.5.7-2.56,1.76-12.78,2.59-16.89.18-.92.3-1.52,1-1.61s1.09.79,1.31,1.32c1.19,2.84,1.47,5.9,2,8.9.45,2.74.79,5.49,1.22,8.22.32,2,1.27,2.64,3.65,2.43,2.1-.19,3.23-1.29,3.17-3.18A134.61,134.61,0,0,0,99.13,115a2,2,0,0,1,.74-2.11,45.41,45.41,0,0,0,6.47-7.51,4.07,4.07,0,0,0,0-5.26c-2-2.63-3.61-5.59-6.17-7.76-1.23-1-2.59-1.91-3.91-2.87C100.1,86,101.38,82.26,99.91,79c-1.58-3.5-4.48-6-10.89-5.13a11.2,11.2,0,0,1,.68-2.1c.87-2.67-.53-4.66-3.32-4.64a2.61,2.61,0,0,0-2,1.18A10.63,10.63,0,0,0,82.83,71c-1.26,3.22-2.55,6.42-3.81,9.64-.76,1.93-.12,3.89,0,5.83.2,5.08,1.3,10.06,1.61,15.14a83.35,83.35,0,0,1-1,17.58c-.5,3.35-.88,6.71-1.34,10.07a5.2,5.2,0,0,0,.26,3.41M91.05,89.05c-4.57-.17-7.58-3.93-7-7.63a7.71,7.71,0,0,1,11.17-5.65c3.18,1.58,4.91,5.36,3.5,8.55-1.29,2.89-3.56,5.16-7.7,4.73M79.5,128.93c.81-5.22,1.4-10.48,2.1-15.72A54.19,54.19,0,0,0,82,102.88c-.31-5.2-1.14-10.37-1.66-15.56-.26-2.61-.78-5.24.41-7.8.69-1.47,1.17-3,1.8-4.53.85-2,1.17-3.94,2.48-5.71a2,2,0,0,1,2.31-.67,1.8,1.8,0,0,1,1.37,2,21,21,0,0,1-1.17,3.54c-2.78,2-4.88,5.55-4.67,9,.18,3,2.85,6.26,5.79,6.71a12.11,12.11,0,0,0,3.71.26c1,0,1.85-.37,2.72.12,2.06,1.18,4.14,2.31,5.61,4.27,1.25,1.69,2.59,3.3,3.84,5,1.94,2.63,1.84,4.53-.42,6.82-1.34,1.35-4.81,5.33-5.42,5.73a2.23,2.23,0,0,1-3.34-2.91,12.9,12.9,0,0,1,3.05-4,3.57,3.57,0,0,0,1.28-3A2,2,0,0,0,98,100c-1-.08-2.19.56-1.49,5.24a26.24,26.24,0,0,1-2,3.06,3.27,3.27,0,0,0,1.85,5.28c1.14.35,1.48.21,1.48.21.48,5,1,11.59,1,16.6a2,2,0,0,1-2,2.15c-1.56.15-2.18-.47-2.37-1.8-.56-3.88-1.23-7.77-1.79-11.65A22.83,22.83,0,0,0,91,113a2.1,2.1,0,0,0-1.8-1.52,1.77,1.77,0,0,0-1.81,1,7.41,7.41,0,0,0-.71,1.88c-.53,3.21-.95,6.43-1.49,9.63a54.83,54.83,0,0,1-1.3,7c-.46,1.5-1.08,1.7-2.41,1.62s-2-.27-2.25-1.58a8.07,8.07,0,0,1,.24-2.12m18.57-27.44c.86.79-.13,2.24-.59,2.49-.36-.89-.3-3.08.59-2.49"/><path class="cls-1" d="M112.21,79.08a17,17,0,0,0-1.11,10.57,5.8,5.8,0,0,0,1.73,3.15c3.2,3.18,4.36,5.65,4.11,10-.3,5.19-.49,11.83-.8,17-.21,3.5-.34,7.41-.56,10.91-.07,1.21,1.36,2.53,2.79,2.59,2.23.28,4.38.43,4.78-2,.19-1.13.64-11.38,1.27-15.32.14-.85-.06-1.59,1.06-1.56.58.14.6.7.82,1.55.16.58,2.07,14.35,2.36,15.41a2.45,2.45,0,0,0,1.9,1.83c2,.12,5.11.37,4.71-3.73s-.78-8.21-1.21-12.3c-.08-.71,0-1.09.77-1.33,1.5-.45,2-1.55,2-3.11a55.44,55.44,0,0,0-1.55-11.62,15.35,15.35,0,0,0-2.86-5.76,16.5,16.5,0,0,1-.95-1.55c-.5-.86-.49-1.11.37-1.71a10.57,10.57,0,0,0,3-3.64c1.65-3.17.13-8.67-3.81-10.22-4.44-1.81-8-1-10.1,1.77-1.51,1.8-2.61,5.6-1.06,8.33-1.14-.26-1.35-1-1.65-1.93-.6-1.94-.29-3.88-.17-5.83.06-1,.26-2-.93-2.72-3.36-1.37-4.69.73-4.89,1.17m16.41,13a9,9,0,0,1-6-1.6c-2.24-1.1-4.85-10.42,3.2-11.74,5.9-1.06,8.22,3.84,8.34,6.6.13,2.92-2.74,6.48-5.53,6.74M112.69,81a3,3,0,0,1,1.64-2.19c1.32-.46,2.51.21,2.46,1.59,0,1.08-.24,2.16-.25,3.23,0,2.76.39,5.31,3.49,6.38a3.49,3.49,0,0,1,1,.67,10.43,10.43,0,0,0,7.64,2.65,1.5,1.5,0,0,1,1.52.75c1.9,2.91,3.52,5,4.11,8.49.32,1.93.79,4.79,1.07,6.73a11.92,11.92,0,0,1,0,4c-.13.64-.36,1.47-1.2,1.36-.66-.08-.43-.88-.55-1.36-.08-.33-.78-6.63-1-9.46a4.28,4.28,0,0,0-.28-1c-.09-.25-.23-.52-.54-.5s-.52.4-.48.73c.18,2,.33,3.9.51,5.85.62,6.79,1.76,13.52,2.08,20.34a7.1,7.1,0,0,1,0,1.22c-.18,1.58-1.11,1.75-2.72,1.71-1-.32-1.27-.32-1.61-2-.74-3.64-1.85-13.84-2.05-15s-.73-2-2-2-1.79.18-2.2,1.74a11.07,11.07,0,0,0-.34,1.79c-.18,2-.65,10.74-1.06,13.35-.37,2.41-1.63,2.64-3.74,2.1-1.07-.15-1-1.71-1-2.44-.16-3.19.27-6.35.37-9.52.19-6.08.55-12.15.84-18.22a11.42,11.42,0,0,0-3.17-8.68c-1.81-1.94-3.37-2.86-3.32-6.63a16.87,16.87,0,0,1,.86-5.71"/><path class="cls-1" d="M139.26,108.45c-.52.13-.69.58-.55,1.12.77,3.08.58,6-1.8,8.74a2.9,2.9,0,0,0,2.6-1.88,11.23,11.23,0,0,0,.6-7.1c-.08-.43-.18-1-.85-.88"/><path class="cls-1" d="M141.37,131.92c.49.05,1-.27,1,.4s-.47.7-1,.7a18.76,18.76,0,0,1-5.82-.52c.06-.57.33-.51.59-.55a24.24,24.24,0,0,1,5.25,0"/></g></g></svg>