<svg xmlns="http://www.w3.org/2000/svg" xmlns:xlink="http://www.w3.org/1999/xlink" viewBox="0 0 80.89 50.24"><defs><style>.cls-1{fill:none;}.cls-2,.cls-6{fill:#fff;}.cls-3{clip-path:url(#clip-path);}.cls-4{fill:#d1041f;}.cls-4,.cls-5,.cls-6{fill-rule:evenodd;}.cls-5{fill:#325875;}</style><clipPath id="clip-path" transform="translate(0)"><path class="cls-1" d="M13.2,1.94a12.5,12.5,0,0,0-5.47,2.5A4.34,4.34,0,0,0,6.13,7C4.38,15.81,2.59,24.57.82,33.34l-.42,2c-.17.87-.25,1.76-.4,2.91.82-.51,1.4-.89,2-1.23a21.2,21.2,0,0,1,10.09-2.68c6.44-.28,13.87,1.76,16.78,2.85C33.9,39.11,39,40.92,44,42.77a27.61,27.61,0,0,0,9.25,1.64,18,18,0,0,0,7.18-1.29c.56-.23,1.19-.4,1.44-1.21C59.27,40,57.8,37.25,56.3,34.48l-.47-.88-.48-.92h0A14.19,14.19,0,0,0,52,28.11c-.06,0,0-.25,0-.53a5.07,5.07,0,0,0,3.39-1.35c2.66-2.15,9.55-8,9.83-12A24.49,24.49,0,0,1,53.24,13.1c-3.19-1-6.36-2-9.47-3.32-3.63-1.47-7.25-3-10.72-4.74A30.82,30.82,0,0,0,18.89,1.32a26.71,26.71,0,0,0-5.69.62"/></clipPath></defs><title>usa-flag</title><g id="Layer_2" data-name="Layer 2"><g id="Layer_1-2" data-name="Layer 1"><path class="cls-2" d="M55.46,26.23a5.07,5.07,0,0,1-3.39,1.35c0,.28-.11.49,0,.53a14.19,14.19,0,0,1,3.33,4.56h0l.48.93.47.88c1.5,2.77,3,5.55,5.58,7.43-.24.81-.87,1-1.43,1.21a18.05,18.05,0,0,1-7.18,1.29A27.61,27.61,0,0,1,44,42.77C39,40.92,33.9,39.11,28.86,37.23a49.11,49.11,0,0,0-16.79-2.85A21.19,21.19,0,0,0,2,37.06c-.59.34-1.17.72-2,1.23.16-1.15.23-2,.4-2.91l.42-2C2.59,24.57,4.38,15.81,6.13,7a4.29,4.29,0,0,1,1.6-2.6,12.51,12.51,0,0,1,5.46-2.5C20.23.41,26.72,1.8,33.05,5c3.47,1.77,7.09,3.27,10.72,4.74,3.11,1.27,6.28,2.31,9.47,3.32a24.49,24.49,0,0,0,12.05,1.09c-.28,4-7.17,9.89-9.83,12" transform="translate(0)"/><g class="cls-3"><path class="cls-4" d="M2,33.25a33,33,0,0,1,10.71.41A53.29,53.29,0,0,1,25,37.84c5,2.34,8.59,3.88,12.39,4.73,3.45.77,30.72,5,36,4.74l-.57,2.92c-5.17.21-32.48-4-36-4.84-9.06-1.9-15.71-7.55-24.6-9.3-3.47-.68-7.35,1.09-10.95,1.41Z" transform="translate(0)"/><path class="cls-4" d="M2.53,30.66l.58-3a34.24,34.24,0,0,1,10.42.41A52.1,52.1,0,0,1,26,32.21c5,2.35,8.51,3.91,12.21,4.78,3.46.81,20.74,5.17,26.24,4.89l-.57,2.92c-5.4.24-22.75-4.15-26.34-5-4-.94-7.59-2.56-12.77-5A49.05,49.05,0,0,0,13,30.92a31.2,31.2,0,0,0-10.48-.26" transform="translate(0)"/><path class="cls-4" d="M3.58,25.22l.57-3a34.92,34.92,0,0,1,10.67.38,52.34,52.34,0,0,1,12.43,4.14c5,2.34,8.52,3.91,12.21,4.78,3.42.8,20.65,5.16,26,4.9l-.57,2.92c-5.29.22-22.58-4.17-26.12-5-4-.93-7.6-2.55-12.77-5A49.05,49.05,0,0,0,14.3,25.44a31.09,31.09,0,0,0-10.72-.22" transform="translate(0)"/><path class="cls-4" d="M4.63,19.76l.57-3a34.43,34.43,0,0,1,10.25.43,52.1,52.1,0,0,1,12.44,4.13c5,2.35,8.7,4,12.57,4.87C44,27,61.79,31.13,67,30.9l-.57,2.92c-5.14.19-23-4-26.63-4.81A50.56,50.56,0,0,1,31,25.84c-5.23-2.29-10.43-4.75-16.08-5.8a31.47,31.47,0,0,0-10.3-.28" transform="translate(0)"/><path class="cls-4" d="M5.67,14.31l.58-3a34.4,34.4,0,0,1,10.49.41,52.18,52.18,0,0,1,12.43,4.13c5,2.35,8.51,3.91,12.21,4.78,3.46.81,20.74,5.17,26.23,4.89L67,28.44c-5.39.24-22.74-4.15-26.33-5-4-.94-7.59-2.56-12.76-5a49.28,49.28,0,0,0-11.74-3.92,31.29,31.29,0,0,0-10.54-.25" transform="translate(0)"/><path class="cls-4" d="M6.72,8.87l.58-3A34.63,34.63,0,0,1,18,6.23a52.57,52.57,0,0,1,12.44,4.14c5,2.34,8.51,3.91,12.2,4.78,3.41.8,20.64,5.16,26,4.9L68.11,23c-5.28.22-22.57-4.17-26.11-5-4-.93-7.59-2.55-12.77-5A49,49,0,0,0,17.5,9.08,30.94,30.94,0,0,0,6.72,8.87" transform="translate(0)"/><path class="cls-4" d="M7.77,3.43,8.26.88a48.73,48.73,0,0,1,23.6,4.75c.69.32,1.34,0,2,.32s1,.39,1.48.6c7.59,3.37,37.09,10,45.58,9.71l-1.17,4.83c-5.16.2-27.77-5.65-36.44-8.61a113,113,0,0,1-12.77-5A49,49,0,0,0,18.78,3.6a30.83,30.83,0,0,0-11-.17" transform="translate(0)"/><path class="cls-5" d="M4.62,19.77,8.39.56c11.59-.49,19.79-2.5,26.92,6L31,25.84c-6.08-2.52-14.4-7.12-26.39-6.07" transform="translate(0)"/><path class="cls-6" d="M14.6,1.12l-.34.55-.63.09.41.49-.12.64.6-.24.56.31,0-.65.46-.45-.62-.15ZM11.53,16.34l-.34.55-.63.09.41.5-.12.63.6-.24.56.31,0-.65.46-.45-.62-.15Zm18.4,5.78-.47.43-.63-.07.27.57-.28.57.64-.09.46.42.13-.61.56-.31-.56-.3Zm-4.48-1.89-.47.43-.63-.07.27.57-.28.57.64-.09.46.42.13-.61.56-.31-.56-.3ZM20.8,18.61l-.42.5h-.64l.34.54-.2.62.62-.16.52.38,0-.64.52-.38L21,19.23ZM6.61,16.52l-.34.55-.64.08.41.5-.11.64.59-.24.56.3,0-.64.47-.45-.62-.16Zm9.73.72-.45.46-.64-.06.29.58-.25.6.64-.11.48.42.1-.64.55-.33-.57-.29Zm11.72,1.9-.47.43L27,19.5l.27.57-.27.57.63-.09.47.42.12-.61.56-.31-.55-.3Zm-13.8-4.39-.34.55-.63.09.41.49-.12.64.59-.24.57.31,0-.65.46-.45-.62-.16ZM19,15.91l-.45.46L18,16.32l.29.57-.25.6.63-.1.49.42.1-.64.54-.34-.57-.29ZM9.42,14.52l-.34.55-.64.09.41.49-.11.64.59-.24.56.31,0-.65.46-.45-.62-.16Zm14,2.87-.42.48h-.64l.34.53-.21.6.63-.16.51.37.05-.62.52-.37L23.61,18ZM12.26,12.5l-.34.55-.64.09.41.5-.11.63.59-.24.56.31,0-.65.46-.44-.62-.16Zm18.4,5.78-.47.43-.64-.07.27.57-.27.57.63-.09.47.42.12-.61.56-.31-.56-.3Zm-4.48-1.89-.47.43-.64-.07.27.57-.27.57.63-.09.47.42.12-.61.56-.31-.56-.3Zm-4.66-1.62-.41.5h-.64l.34.55-.21.61.62-.16.52.39.05-.65.52-.38-.6-.24ZM7.33,12.68,7,13.23l-.63.08.41.5-.12.64.6-.24.56.31,0-.65.46-.45-.62-.16Zm9.74.72-.45.46L16,13.8l.29.58L16,15l.63-.11.48.42.1-.64.55-.33L17.21,14Zm11.75,2-.47.44-.64-.07.27.56-.27.57.63-.09.47.42.12-.61.56-.31-.56-.3ZM15,11l-.34.55-.63.09.41.5-.12.63.59-.24.57.31,0-.65.46-.45-.62-.15Zm4.78,1.16-.45.47-.64-.06.29.58-.25.59.63-.1.49.42.09-.64.55-.34-.57-.29Zm-9.62-1.39-.34.55-.64.09.41.49-.11.64.59-.24.56.31,0-.65.46-.45-.62-.15Zm14,2.87-.42.48h-.64l.34.53-.21.6.63-.15.51.36.05-.62.52-.37-.59-.23ZM13,8.73l-.34.54L12,9.36l.41.5-.11.64.59-.24.56.3,0-.64.46-.45-.62-.16Zm18.4,5.77-.47.44-.64-.07.27.56-.27.57.63-.09.47.43.12-.62.56-.31-.56-.29Zm-4.48-1.89-.47.44L25.83,13l.27.56-.27.57.63-.09.47.43.12-.62.56-.31-.56-.29ZM22.28,11l-.41.5h-.64l.33.55-.2.61L22,12.5l.52.38.05-.65.52-.38-.6-.24ZM8.09,8.9l-.34.55-.63.09.41.49-.12.64.6-.24.56.31,0-.65L9,9.64l-.62-.16Zm9.74.72-.45.46L16.74,10l.29.57-.25.6.63-.11.48.43.1-.65.55-.33L18,10.25Zm11.88,1.93-.47.44-.64-.07.27.56-.27.57.63-.08.47.42.12-.62.57-.31-.56-.29ZM15.91,7.16l-.34.55-.63.09.41.5-.12.63.6-.24.56.31,0-.65.46-.44-.62-.16Zm4.78,1.17-.45.46-.64-.06.29.58-.25.59.64-.1.48.42.1-.64.55-.33L20.84,9Zm-9.62-1.4-.34.55-.63.09.4.5-.11.63L11,8.46l.57.31-.05-.65L12,7.68l-.62-.16Zm14,2.87-.41.48H24l.33.53-.2.59.62-.15.51.37,0-.63.52-.37-.59-.23ZM13.91,4.92l-.34.55-.64.08.41.5-.11.64.59-.24.56.3,0-.64.47-.45-.62-.16Zm18.4,5.78-.47.43-.64-.07.27.56-.27.57.63-.08.47.42.12-.62L33,11.6l-.56-.29ZM27.83,8.81l-.47.43-.64-.07.27.56-.27.57.63-.08.47.42.12-.62.57-.31L28,9.42ZM23.17,7.18l-.41.5h-.64l.34.55-.2.61.62-.15.51.38.05-.65L24,8l-.59-.24ZM9,5.09l-.35.55L8,5.73l.41.49-.12.64.6-.24.56.31,0-.65.46-.45-.62-.15Zm9.73.72-.45.46-.64,0,.29.57-.25.6.63-.11.48.43.1-.64.55-.34-.57-.29Zm11.68,2-.47.43-.63-.07.27.56-.28.57.64-.08.46.42L30.52,9l.56-.31-.56-.3ZM16.61,3.37l-.34.55L15.63,4l.41.5-.11.64.59-.24.56.31,0-.65.46-.45L16.88,4Zm4.78,1.16L20.93,5l-.63,0,.29.57-.25.6L21,6l.48.43.1-.64.55-.34-.57-.29ZM11.76,3.14l-.34.55-.63.08.41.5-.12.64.6-.24.56.3,0-.64.46-.45L12,3.72ZM25.76,6l-.41.48h-.64L25,7l-.2.6.62-.16.51.37L26,7.2l.53-.37L26,6.6ZM33,6.9l-.47.43-.63-.07.27.57-.28.56.64-.08.46.42.13-.61.56-.31-.56-.3ZM28.52,5l-.47.43-.63-.07.27.57-.28.57.64-.09.46.42.13-.61.56-.31-.56-.3ZM23.87,3.39l-.42.5h-.64l.34.55-.2.62.62-.16.51.38.05-.64.52-.38L24.06,4ZM9.68,1.3l-.34.55-.64.08.41.5L9,3.07l.59-.24.56.3,0-.64L10.58,2,10,1.88ZM19.41,2,19,2.48l-.64-.06.29.58-.25.59.64-.1.48.42.1-.64.55-.33-.57-.29Z" transform="translate(0)"/></g></g></g></svg>