<svg xmlns="http://www.w3.org/2000/svg" xmlns:xlink="http://www.w3.org/1999/xlink" viewBox="0 0 176.81 145.29"><defs><style>.cls-1{fill:none;}.cls-2,.cls-6{fill:#fff;}.cls-3{clip-path:url(#clip-path);}.cls-4{fill:#d1041f;}.cls-4,.cls-5,.cls-6{fill-rule:evenodd;}.cls-5{fill:#325875;}</style><clipPath id="clip-path"><path class="cls-1" d="M51.33,2a12.6,12.6,0,0,0-5.47,2.5A4.31,4.31,0,0,0,44.26,7C42.51,15.83,40.72,24.59,39,33.36l-.42,2c-.17.87-.25,1.76-.4,2.91.82-.51,1.4-.89,2-1.23a21.18,21.18,0,0,1,10.09-2.68c6.44-.28,13.87,1.76,16.78,2.85,5,1.92,10.13,3.73,15.13,5.58a27.47,27.47,0,0,0,9.25,1.64,17.85,17.85,0,0,0,7.18-1.29c.56-.23,1.19-.4,1.44-1.21-2.6-1.91-4.07-4.66-5.57-7.43L94,33.62l-.48-.92h0a14.26,14.26,0,0,0-3.35-4.57c-.06,0,0-.25,0-.53a5.06,5.06,0,0,0,3.39-1.35c2.66-2.15,9.55-8,9.83-12a24.39,24.39,0,0,1-12-1.13c-3.19-1-6.36-2-9.47-3.32-3.63-1.47-7.25-3-10.72-4.74A30.9,30.9,0,0,0,57,1.34,26.52,26.52,0,0,0,51.33,2"/></clipPath></defs><title>usa-side-flag</title><g id="Layer_2" data-name="Layer 2"><g id="Layer_1-2" data-name="Layer 1"><g id="Layer_1-2-2" data-name="Layer 1-2"><path class="cls-2" d="M23.4,122.43H20.6a1.78,1.78,0,0,1,.13,1.09h2.93a2.18,2.18,0,0,1-.26-1.1"/><path class="cls-2" d="M48.91,122.94a2.08,2.08,0,0,1,.12-.32c-5.64,0-12.15-.09-18.69-.14a2.26,2.26,0,0,1,.15.72,1.55,1.55,0,0,1,0,.43l6.76.1c2.68,0,5.35.07,8,.09h3.6a2,2,0,0,1,.06-.9"/><path class="cls-2" d="M79.25,123.84a2.08,2.08,0,0,1,.43-1.22l-11.81.06a2.23,2.23,0,0,1,.11,1.17H79.25"/><path class="cls-2" d="M93.14,123.83a2.63,2.63,0,0,1-.25-1,1.6,1.6,0,0,1,0-.31H86.1a2.61,2.61,0,0,1,.24.94,1.6,1.6,0,0,1,0,.31h6.8"/><path class="cls-2" d="M116.58,122.94a2.54,2.54,0,0,1,.17-.46c-5,0-11,0-17.28,0a2.47,2.47,0,0,1,.13,1.29h16.94a2.89,2.89,0,0,1,0-.83"/><path class="cls-2" d="M128,123.75a2.36,2.36,0,0,1-.2-.88,2,2,0,0,1,0-.35h-4.43a1.78,1.78,0,0,1,.12.29,1.89,1.89,0,0,1,0,1H128"/><path class="cls-2" d="M134.1,122.62a2.55,2.55,0,0,1,.08,1.13h42.63v-1.06c-10.3.09-31.06.07-42.71,0"/><path class="cls-2" d="M105.26,12.83a1,1,0,0,0-1-.14,18.8,18.8,0,0,1-10.12-.14A113.49,113.49,0,0,1,71,3.41,29.39,29.39,0,0,0,50,.91a9.22,9.22,0,0,0-3.44,1.5c-.86.66-1.39.64-2.27-.13a4.42,4.42,0,0,0-5.94-.44c-.69.44-.75,3-.88,3.64Q34.1,22.54,30.6,39.59q-2.48,12-5,24a25.54,25.54,0,0,1-1.14,4.89c-2.15-3.7-9.58-4.21-12.62-1.4a9.18,9.18,0,0,0,.72,14.27c-1.35,1.18-1.66,2.81-2.33,4.24a38.69,38.69,0,0,0-2.82,8.77C7,96.46,7.25,97.44,9,98.28c1.41.69,1.48,1.67,1.28,2.89a220.47,220.47,0,0,0-2.4,24.6c0,1.22.31,5.23,5.61,3.17,0,0,.64.13,2.06.53A3.62,3.62,0,0,0,20.07,127a3.1,3.1,0,0,0,.11-.51c.45-2.12.81-4.26,1.25-6.38.12-.61.44-1.67.74-3.13,0,0,.71,6.65.93,8.59.24,2.23.86,3.66,3,4.11a5.75,5.75,0,0,0,3.6-.55,3.23,3.23,0,0,0,1.23-2.4c.08-1.63-1.28-14.74-2.11-20a3,3,0,0,1,.95-2.81,24.12,24.12,0,0,0,3.1-3.94,6.19,6.19,0,0,0,.7-5.8c-.54-1.51-1-3.06-1.57-4.56-.71-1.82-1-3.83-2.28-5.39-.69-.87,1.59-13.5,2.69-18.91,1.44-7,3.07-14.07,4.25-21.17a8,8,0,0,1,4.57-6.45c7.7-4.3,20.07-1.1,25.13.67,5.21,1.83,10.36,3.82,15.57,5.65,6.64,2.34,13.15,2.32,19.42-1.28,1.07-.62,1.12-1,0-1.67a10.23,10.23,0,0,1-3.05-2.81,47.2,47.2,0,0,1-3.62-6.13c-.74-1.34-1.87-2.45-2.4-4.09,2.6-.83,4.26-2.9,6.19-4.58a22.54,22.54,0,0,0,6.71-9.74c.11-.32.33-.64,0-.95M10.91,71c2.27-5,7.16-5.39,11-3.1a4.53,4.53,0,0,1,1.9,4.42c-.31,1.5-.63,3-.94,4.5-.67,3.15-2.19,4.39-5.37,4.4A7.07,7.07,0,0,1,10.91,71m-.68,26.46c-1.7-.84-1.83-1.32-1.48-3.2A40.68,40.68,0,0,1,12.28,84a2.57,2.57,0,0,1,2.64-1.65,10.14,10.14,0,0,0,6.94-1c-.69,3.91-1.34,7.46-2.25,11-.16.63-.53.71-1.09.63-1.74-.24-2.14-.68-2.18-2.52,0-.35,0-.76-.4-.85s-.51.35-.6.67l-.28,1c-.35,1.39-.25,1.64,1.14,2.21s2.88,1,4.29,1.65c1.9.8,2.38,1,1.59,3.53a2.05,2.05,0,0,1-2,1.58,26.7,26.7,0,0,1-9.8-2.78M12.86,127c-.13,1.16-.88,1.29-1.73,1.4a1.45,1.45,0,0,1-1.81-1,2.2,2.2,0,0,1-.06-.37c-.08-.48-.1-1-.14-1.46.1-8,1.22-16,2.26-23.93a7.5,7.5,0,0,1,.15-1c.1-.71.48-.94,1.17-.73,1.34.41,2.66.84,4,1.18,1,.24,1.18.71,1,1.67-.8,3.67-1.59,7.35-2.28,11-.81,4.39-2.09,8.69-2.59,13.13m17.08-1.5a2.77,2.77,0,0,1-2.16,3.27,2.67,2.67,0,0,1-1.43-.09c-1.27-.25-1.75-1.11-1.88-3-.29-4-1.06-8-1.32-12.08-.15-2.31.64-4.55,1.21-6.78.24-1,1-.71,1.71-.63s1.59-.11,1.7,1c.15,1.46,1.34,12.23,2.17,18.28m-.31-38.8c.94,2.62,1.88,5.25,2.76,7.89a5.82,5.82,0,0,1-1,5.88A35.24,35.24,0,0,1,28,104.08a2.05,2.05,0,0,1-2.88.36,3.07,3.07,0,0,1-.26-.25,2.23,2.23,0,0,1-.66-3.08l.15-.21c1-1.41,2.14-2.75,3.21-4.12.25-.33.56-.71.22-1.11s-1,.43-1.72,1.45c.68-3.37,3.37-11,3.54-10.52m4.65-35.35Q29.59,74,25,96.87a6.59,6.59,0,0,1-1.7,3.3,2.76,2.76,0,0,0-.43,3.63,2.81,2.81,0,0,1,.32,2.21c-1.4,6.78-2.78,13.56-4.19,20.33-.35,1.65-.89,2-2.43,2-2.25-.1-2.76-.63-2.32-2.85.27-1.37.54-2.75.82-4.12.07-.36.14-.73.22-1.09.22-1.11.45-2.23.68-3.34l.06-.32c.41-2,.83-4,1.24-6,.16-.79.33-1.59.49-2.38.35-1.71.71-3.42,1-5.14.19-1,.54-1.7,1.77-1.54a1,1,0,0,0,.48,0h.47l.11-.09h.05a.23.23,0,0,1,.07-.07h0l.07-.06h0l.06-.07h0l.1-.11h0l.07-.09h0l.06-.08h0l.06-.08h0l.08-.12a5.74,5.74,0,0,0,1-3.16.48.48,0,0,0,0-.17h0a.38.38,0,0,0,0-.15h0a.43.43,0,0,0,0-.16h0a.28.28,0,0,0,0-.13h0a.35.35,0,0,0-.06-.14,0,0,0,0,0,0,0v-.11h0l-.08-.12v-.06L23,96.46h0V95.35h0l-.06-.06-.07-.06h0a3.2,3.2,0,0,0-.71-.49C20.79,94,20.74,93.23,21,92c1.77-9,3.45-18.1,5.45-27.11,2.61-11.72,4.92-23.52,7.35-35.28Q36.38,17.21,39,4.8a5.83,5.83,0,0,1,.1-.73,2.17,2.17,0,0,1,2.42-1.85h0a3.27,3.27,0,0,1,.45.1h0l.45.18h0l.19.11h0l.22.13h0l.18.13h0l.21.17c.59.52.44,1.11.32,1.73C43,8,42.43,11.13,41.79,14.28q-3.76,18.51-7.56,37m59.39-25a5,5,0,0,1-3.39,1.35c0,.27-.11.48-.06.53a13.87,13.87,0,0,1,3.33,4.56h0c.17.31.33.62.49.93s.3.59.46.88C96,37.3,97.45,40.07,100,42c-.24.82-.87,1-1.44,1.21a17.77,17.77,0,0,1-7.17,1.29,27.55,27.55,0,0,1-9.25-1.63C77.12,40.9,72.06,39.1,67,37.21c-2.92-1.08-10.34-3.12-16.79-2.85A21.29,21.29,0,0,0,40.14,37c-.59.34-1.16.72-2,1.23.16-1.15.23-2,.41-2.9.13-.69.27-1.37.41-2.05,1.77-8.76,3.57-17.53,5.32-26.3a4.25,4.25,0,0,1,1.59-2.59,12.67,12.67,0,0,1,5.48-2.49c7-1.53,13.52-.13,19.86,3.1,3.46,1.77,7.09,3.27,10.71,4.75C85,11,88.21,12.08,91.4,13.08a24.36,24.36,0,0,0,12,1.09c-.27,4-7.16,9.89-9.82,12"/><path class="cls-2" d="M103.19,45.82c-2.78,1.94-5.71,3.18-9.18,2a.64.64,0,0,0-.87.3h0c-.18.4.09.65.42.81a4.54,4.54,0,0,0,1.8.51,12.23,12.23,0,0,0,7.34-2c.5-.32,1.09-.65,1-1.56-.28,0-.45-.09-.53,0"/><path class="cls-2" d="M6.22,100a6.73,6.73,0,0,1-2.35-3.89c-.24-1.54.76-2.94.54-4.55a5.31,5.31,0,0,0-1.79,5c.41,2,1.36,3,3.6,3.42"/><path class="cls-2" d="M.77,128.75c-.36,0-.74.17-.77.56s.37.55.73.55H6.8c.38,0,.57-.31.61-.68a29.54,29.54,0,0,0-6.64-.39"/><path class="cls-2" d="M36.91,93.43c-.52.11-.62.54-.51,1a8,8,0,0,1-1,6.43,3.47,3.47,0,0,0,.84-.22,2.89,2.89,0,0,0,.59-.57c1.38-1.92,1.24-4,.72-6.18a.52.52,0,0,0-.59-.43h0"/><path class="cls-2" d="M36,129.28c-1.56-.1-4.76-1-5.43.23,1.69.69,7.11.35,5.43-.23"/><path class="cls-2" d="M63.94,97.61a10.54,10.54,0,0,0,2.66-10.1,8.18,8.18,0,0,0-6.37-5.86,13.21,13.21,0,0,0-4.65.11c-6.62,1.35-8.25,7.82-5.95,12.59a13.77,13.77,0,0,0,3.4,4,25.28,25.28,0,0,0-13.52,11.21c-1.48,2.58-1,4.32,1.42,6.07a9,9,0,0,0,1,.65c1.89,1.16,3.79,2.3,5.68,3.42.59.35,1.17.64,1,1.51-.69,4.38-.7,8.81-1.23,13.21-.28,2.32-.47,4.67-.54,7-.06,2,1.1,3.08,3.09,3.17,2.38.11,3.77-.46,4.75-2.65.85-1.91,3-14.48,3.4-16.1.14-.51.37-1.92,1-1.86s.51.54.55,1a37.06,37.06,0,0,1,.4,4.2,99,99,0,0,0,.82,11.42c.31,3.15,1.49,4.3,4.44,4.35a3.68,3.68,0,0,0,3.61-3c.12-1.8-.49-20.21-.54-20.54L70,120a31.46,31.46,0,0,0,5.84-7.63,4.41,4.41,0,0,0,0-5.07c-2.64-4.26-8.15-8.61-11.87-9.7M50,91.47c-.91-4.92,2.61-8.88,7.75-8.87,5.08-.26,9.23,4.14,7.8,9.93a7.2,7.2,0,0,1-7.63,5.6C53,97.94,50.77,95.55,50,91.47m25,20.09a35,35,0,0,1-5.6,7.58c-1.2,1.26-3.8,1-4.17-.65-.47-2.19,1.36-3.56,4.62-7.07a1.88,1.88,0,0,0-.41-2,2.28,2.28,0,0,0-2.29-.25,1.09,1.09,0,0,0-.76,1.08,4.76,4.76,0,0,0,.07,1l.38,1.86c-3.57,3.55-3.31,6.14-1.24,7.39l1.54.94c.47,5.25.73,19.32.55,20.64s-1.4,1.7-2.69,1.62c-2.31-.15-2.65-1-3-3.27-.4-3-1.08-13.61-1.27-15.81a3.39,3.39,0,0,0-.31-1.16,1.57,1.57,0,0,0-2-.84,1.64,1.64,0,0,0-.6.44c-.59.67-3.62,16.8-4.13,18.32a3.26,3.26,0,0,1-4.17,2l-.16-.06A2,2,0,0,1,48,141.15c.1-1.88,1-13.9,1.54-18,.16-1.34.25-2.43.25-2.43a4.15,4.15,0,0,0,2.82-5.16,4.22,4.22,0,0,0-1.5-2.16,1.34,1.34,0,0,1-.51-1.8,2.35,2.35,0,0,0,.07-.6c.1-1.64-.22-2.37-1.09-2.45a3.39,3.39,0,0,0-2.52,2c-.22.79.29,1.3.8,1.71.68.53,1.16.94,1.87,1.43,1.35.94,2.88,1.87,2,4.16-.46,1.2-1.5,1.34-2.75,1a8.31,8.31,0,0,1-2.16-1c-1.62-1-3.24-1.89-4.81-2.91-2.29-1.49-2.73-2.93-1.33-5.26A21.38,21.38,0,0,1,49.89,101a10.78,10.78,0,0,1,6.77-1.67,15.71,15.71,0,0,0,4.05-.17c2.77-1.16,4.57.34,6.81,1.49a20.2,20.2,0,0,1,7.53,7.52,3.09,3.09,0,0,1,0,3.4m-7-1.32a.62.62,0,0,1,.53.07.76.76,0,0,1,.22,1,1,1,0,0,1-.75.73,1.47,1.47,0,0,1-.28-1c0-.33,0-.68.28-.87m-18.25.51c-.08.38,0,.89-.5.89a.74.74,0,0,1-.8-.67v0a.84.84,0,0,1,.66-1l.08,0c.58-.08.47.46.56.77"/><path class="cls-2" d="M36.26,105.52c-.33-.19-.61,0-.87.24-1.77,1.84-2.07,6-.56,8,.27.35.53.79,1.18.77.1-.16.17-.23.15-.27-1.25-2.67-1.62-5.31.21-7.91.21-.29.25-.64-.11-.85"/><path class="cls-2" d="M37,144.47c2.07,1,6.59,1.07,8.12.29a19.33,19.33,0,0,0-8.12-.29"/><path class="cls-2" d="M70.36,144c-.34.06-.66.18-.61.62s.37.36.62.36h3.75v-.48a5.08,5.08,0,0,0-3.78-.51"/><path class="cls-2" d="M110.85,107.52a4.82,4.82,0,0,1,0-.93,7.06,7.06,0,0,0-1.5-6.62,6,6,0,0,1-.5-.63c-.22-.36-.33-.81,0-1.1s.64,0,.89.26a7.61,7.61,0,0,1,2.61,6.69,3.13,3.13,0,0,1-1.49,2.33"/><path class="cls-2" d="M106.19,133c.5,0,1-.28,1,.39s-.47.71-1,.71a18.78,18.78,0,0,1-5.83-.53c.06-.57.34-.51.59-.54a23,23,0,0,1,5.25,0"/><path class="cls-2" d="M78.07,134.37c-1.16.22-4.46-.08-4.36-.62s.51-.32.82-.37c1.32-.21,2.69.38,3.93-.23.08.64.45,1.06-.39,1.22"/><path class="cls-2" d="M78.46,132.64h0c.79,1.44,2.51,1.45,3.47,1.42,2-.06,2.86-.57,3.38-2.5.7-2.56,1.76-12.78,2.59-16.89.18-.92.3-1.52,1-1.61s1.09.79,1.31,1.32c1.19,2.84,1.47,5.9,2,8.9.45,2.74.79,5.49,1.22,8.22.32,2,1.27,2.64,3.65,2.43,2.1-.19,3.23-1.29,3.17-3.18A133.54,133.54,0,0,0,99.13,115a2,2,0,0,1,.74-2.11,44.94,44.94,0,0,0,6.47-7.51,4.06,4.06,0,0,0,0-5.26c-2-2.63-3.61-5.59-6.17-7.76-1.23-1-2.59-1.91-3.91-2.87C100.1,86,101.38,82.28,99.91,79c-1.58-3.5-4.48-6-10.89-5.13a12,12,0,0,1,.68-2.1c.87-2.67-.53-4.66-3.32-4.64a2.64,2.64,0,0,0-2,1.18A10.94,10.94,0,0,0,82.83,71c-1.26,3.22-2.55,6.42-3.81,9.64-.76,1.93-.12,3.89,0,5.83.2,5.08,1.3,10.06,1.61,15.14a83.45,83.45,0,0,1-1,17.58c-.5,3.35-.88,6.71-1.34,10.07a5.19,5.19,0,0,0,.26,3.41m12.5-43.62c-4.57-.17-7.58-3.93-7-7.63A7.71,7.71,0,0,1,92.86,75a7.88,7.88,0,0,1,2.36.77c3.18,1.58,4.91,5.36,3.5,8.55-1.29,2.89-3.56,5.16-7.7,4.73M79.5,129c.81-5.22,1.4-10.48,2.1-15.72A54,54,0,0,0,82,102.9c-.31-5.2-1.14-10.37-1.66-15.56-.26-2.61-.78-5.24.41-7.8.69-1.47,1.17-3,1.8-4.53.85-2,1.17-3.94,2.48-5.71a2,2,0,0,1,2.31-.67,1.8,1.8,0,0,1,1.37,2,19.85,19.85,0,0,1-1.17,3.54c-2.78,2-4.88,5.55-4.67,9,.18,3,2.85,6.26,5.79,6.71a11.88,11.88,0,0,0,3.71.26c1,0,1.85-.37,2.72.12,2.06,1.18,4.14,2.31,5.61,4.27,1.25,1.69,2.59,3.3,3.84,5,1.94,2.63,1.84,4.53-.42,6.82-1.34,1.35-4.81,5.33-5.42,5.73a2.23,2.23,0,0,1-3.34-2.91,13,13,0,0,1,3-4,3.55,3.55,0,0,0,1.28-3A2,2,0,0,0,98,100c-1-.08-2.19.56-1.49,5.24a24.74,24.74,0,0,1-2,3.06,3.28,3.28,0,0,0,.44,4.61,3.35,3.35,0,0,0,1.41.67c1.14.35,1.48.21,1.48.21.48,5,1,11.59,1,16.6A2,2,0,0,1,97,132.56h-.16c-1.56.15-2.18-.47-2.37-1.8-.56-3.88-1.23-7.77-1.79-11.65A22.68,22.68,0,0,0,91,113a2.1,2.1,0,0,0-1.8-1.52,1.79,1.79,0,0,0-1.81,1,7.5,7.5,0,0,0-.71,1.88c-.53,3.21-1,6.43-1.49,9.63a53.57,53.57,0,0,1-1.3,7c-.46,1.5-1.08,1.7-2.41,1.62s-2-.27-2.25-1.58a8.46,8.46,0,0,1,.24-2.12M98,101.49c.86.79-.13,2.24-.59,2.49-.36-.89-.3-3.08.59-2.49"/><path class="cls-2" d="M112.21,79.1a17,17,0,0,0-1.11,10.57,5.83,5.83,0,0,0,1.73,3.15c3.2,3.18,4.36,5.65,4.11,10-.3,5.19-.49,11.83-.8,17-.21,3.5-.34,7.41-.56,10.91-.07,1.21,1.36,2.53,2.79,2.59,2.23.28,4.38.43,4.78-2,.19-1.13.64-11.38,1.27-15.32.14-.85-.06-1.59,1.06-1.56.58.14.6.7.82,1.55.16.58,2.07,14.35,2.36,15.41a2.44,2.44,0,0,0,1.9,1.83c2,.12,5.11.37,4.71-3.73s-.78-8.21-1.21-12.3c-.08-.71,0-1.09.77-1.33,1.5-.45,2-1.55,2-3.11a55,55,0,0,0-1.55-11.62,15.28,15.28,0,0,0-2.86-5.76,17.35,17.35,0,0,1-.95-1.55c-.5-.86-.49-1.11.37-1.71a10.48,10.48,0,0,0,3-3.64c1.65-3.17.13-8.67-3.81-10.22-4.44-1.81-8-1-10.1,1.77-1.51,1.8-2.61,5.6-1.06,8.33-1.14-.26-1.35-1-1.65-1.93-.6-1.94-.29-3.88-.17-5.83.06-1,.26-2-.93-2.72-3.36-1.37-4.69.73-4.89,1.17m16.41,13a9,9,0,0,1-6-1.6c-2.24-1.1-4.85-10.42,3.2-11.74,5.9-1.06,8.22,3.84,8.34,6.6.13,2.92-2.74,6.48-5.53,6.74m-16-11a3,3,0,0,1,1.64-2.19c1.32-.46,2.51.21,2.46,1.59,0,1.08-.24,2.16-.25,3.23,0,2.76.39,5.31,3.49,6.38a3.58,3.58,0,0,1,1,.67,10.41,10.41,0,0,0,7.64,2.65,1.51,1.51,0,0,1,1.52.75c1.9,2.91,3.52,5,4.11,8.49.32,1.93.79,4.79,1.07,6.73a11.68,11.68,0,0,1,0,4c-.13.64-.36,1.47-1.2,1.36-.66-.08-.43-.88-.55-1.36-.08-.33-.78-6.63-1-9.46a3.92,3.92,0,0,0-.28-1c-.09-.25-.23-.52-.54-.5a.64.64,0,0,0-.48.73c.18,2,.33,3.9.51,5.85.62,6.79,1.76,13.52,2.08,20.34a6.22,6.22,0,0,1,0,1.22c-.18,1.58-1.11,1.75-2.72,1.71-1-.32-1.27-.32-1.61-2-.74-3.64-1.85-13.84-2.05-15s-.73-2-2-2-1.79.18-2.2,1.74a12.27,12.27,0,0,0-.34,1.79c-.18,2-.65,10.74-1.06,13.35-.37,2.41-1.63,2.64-3.74,2.1-1.07-.15-1-1.71-1-2.44-.16-3.19.27-6.35.37-9.52.19-6.08.55-12.15.84-18.22a11.41,11.41,0,0,0-3.17-8.68c-1.81-1.94-3.37-2.86-3.32-6.63a17,17,0,0,1,.86-5.71"/><path class="cls-2" d="M139.26,108.47c-.52.13-.69.58-.55,1.12.77,3.08.58,6-1.8,8.74a2.88,2.88,0,0,0,2.6-1.88,11.17,11.17,0,0,0,.6-7.1c-.08-.43-.18-1-.85-.88"/><path class="cls-2" d="M141.37,131.94c.49.05,1-.27,1,.4s-.47.7-1,.7a18.71,18.71,0,0,1-5.82-.52c.06-.57.33-.51.59-.55a24.25,24.25,0,0,1,5.25,0"/></g><g id="Layer_1-2-3" data-name="Layer 1-2"><path class="cls-2" d="M93.59,26.25A5.06,5.06,0,0,1,90.2,27.6c0,.28-.11.49,0,.53a14.31,14.31,0,0,1,3.33,4.56h0l.48.93.47.88c1.5,2.77,3,5.55,5.58,7.43-.24.81-.87,1-1.43,1.21a17.85,17.85,0,0,1-7.18,1.29,27.43,27.43,0,0,1-9.32-1.64c-5-1.85-10.1-3.66-15.14-5.54A49.25,49.25,0,0,0,50.2,34.4a21.14,21.14,0,0,0-10.07,2.68c-.59.34-1.17.72-2,1.23.16-1.15.23-2,.4-2.91l.42-2C40.72,24.59,42.51,15.83,44.26,7a4.24,4.24,0,0,1,1.6-2.6,12.56,12.56,0,0,1,5.46-2.5c7-1.49,13.53-.1,19.86,3.1,3.47,1.77,7.09,3.27,10.72,4.74C85,11,88.18,12.07,91.37,13.08a24.43,24.43,0,0,0,12,1.09c-.28,4-7.17,9.89-9.83,12"/><g class="cls-3"><path class="cls-4" d="M40.13,33.27a32.93,32.93,0,0,1,10.71.41,53.38,53.38,0,0,1,12.29,4.18c5,2.34,8.59,3.88,12.39,4.73,3.45.77,30.72,5,36,4.74L111,50.25c-5.17.21-32.48-4-36-4.84-9.06-1.9-15.71-7.55-24.6-9.3-3.47-.68-7.35,1.09-11,1.41Z"/><path class="cls-4" d="M40.66,30.68l.58-3a34.38,34.38,0,0,1,10.42.41,52.35,52.35,0,0,1,12.47,4.14c5,2.35,8.51,3.91,12.21,4.78,3.46.81,20.74,5.17,26.24,4.89L102,44.82c-5.4.24-22.75-4.15-26.34-5-4-.94-7.59-2.56-12.77-5a49.4,49.4,0,0,0-11.77-3.88,31.53,31.53,0,0,0-10.48-.26"/><path class="cls-4" d="M41.71,25.24l.57-3A35.05,35.05,0,0,1,53,22.62a53,53,0,0,1,12.43,4.14c5,2.34,8.52,3.91,12.21,4.78,3.42.8,20.65,5.16,26,4.9L103,39.36c-5.29.22-22.58-4.17-26.12-5-4-.93-7.6-2.55-12.77-5a49.22,49.22,0,0,0-11.7-3.9,31.13,31.13,0,0,0-10.72-.22"/><path class="cls-4" d="M42.76,19.78l.57-3a34.56,34.56,0,0,1,10.25.43A52.55,52.55,0,0,1,66,21.34c5,2.35,8.7,4,12.57,4.87,3.54.81,21.33,4.94,26.54,4.71l-.57,2.92c-5.14.19-23-4-26.63-4.81a49.94,49.94,0,0,1-8.8-3.17c-5.23-2.29-10.43-4.75-16.08-5.8a31.53,31.53,0,0,0-10.3-.28"/><path class="cls-4" d="M43.8,14.33l.58-3a34.52,34.52,0,0,1,10.49.41A52.47,52.47,0,0,1,67.3,15.87c5,2.35,8.51,3.91,12.21,4.78,3.46.81,20.74,5.17,26.23,4.89l-.61,2.92c-5.39.24-22.74-4.15-26.33-5-4-.94-7.59-2.56-12.76-5A49.73,49.73,0,0,0,54.3,14.54a31.36,31.36,0,0,0-10.54-.25"/><path class="cls-4" d="M44.85,8.89l.58-3a34.93,34.93,0,0,1,10.7.36,53,53,0,0,1,12.44,4.14c5,2.34,8.51,3.91,12.2,4.78,3.41.8,20.64,5.16,26,4.9L106.24,23c-5.28.22-22.57-4.17-26.11-5-4-.93-7.59-2.55-12.77-5A49.5,49.5,0,0,0,55.63,9.1a31,31,0,0,0-10.78-.21"/><path class="cls-4" d="M45.9,3.45,46.39.9A48.83,48.83,0,0,1,70,5.65c.69.32,1.34,0,2,.32s1,.39,1.48.6c7.59,3.37,37.09,10,45.58,9.71l-1.17,4.83c-5.16.2-27.77-5.65-36.44-8.61a110.08,110.08,0,0,1-12.77-5A49.33,49.33,0,0,0,56.91,3.62a31,31,0,0,0-11-.17"/><path class="cls-5" d="M42.75,19.79,46.52.58c11.59-.49,19.79-2.5,26.92,6L69.13,25.86c-6.08-2.52-14.4-7.12-26.39-6.07"/><path class="cls-6" d="M52.73,1.14l-.34.55-.63.09.41.49-.12.64.6-.24.56.31V2.33l.46-.45-.62-.15ZM49.66,16.36l-.34.55-.63.09.41.5-.12.63.6-.24.56.31v-.65l.46-.45L50,17Zm18.4,5.78-.47.43L67,22.5l.27.57-.28.57.64-.09.46.42.13-.61.56-.31-.56-.3Zm-4.48-1.89-.47.43-.63-.07.27.57-.28.57.64-.09.46.42.13-.61.56-.31-.56-.3Zm-4.65-1.62-.42.5h-.64l.34.54-.2.62.62-.16.52.38v-.64l.52-.38-.54-.24ZM44.74,16.54l-.34.55-.64.08.41.5-.11.64.59-.24.56.3v-.64l.47-.45-.62-.16Zm9.73.72-.45.46-.64-.06.29.58-.25.6.64-.11.48.42.1-.64.55-.33-.57-.29Zm11.72,1.9-.47.43-.59-.07.27.57-.27.57.63-.09.47.42.12-.61.56-.31-.55-.3Zm-13.8-4.39-.34.55-.63.09.41.49-.12.64.59-.24.57.31V16l.46-.45-.62-.16Zm4.74,1.16-.45.46-.55-.05.29.57-.25.6.63-.1.49.42.1-.64.54-.34-.57-.29Zm-9.58-1.39-.34.55-.64.09.41.49-.11.64.59-.24.56.31v-.65l.46-.45-.62-.16Zm14,2.87-.42.48h-.64l.34.53-.21.6.63-.16.51.37.05-.62.52-.37L61.74,18ZM50.39,12.52l-.34.55-.64.09.41.5-.11.63.59-.24.56.31v-.65l.46-.44-.62-.16Zm18.4,5.78-.47.43-.64-.07.27.57-.27.57.63-.09.47.42.12-.61.56-.31-.56-.3Zm-4.48-1.89-.47.43-.64-.07.27.57-.27.57.63-.09.47.42.12-.61.56-.31-.56-.3Zm-4.66-1.62-.41.5H58.6l.34.55-.21.61.62-.16.52.39.05-.65.52-.38-.6-.24ZM45.46,12.7l-.33.55-.63.08.41.5-.12.64.6-.24.56.31v-.65l.46-.45-.62-.16Zm9.74.72-.45.46-.62-.06.29.58-.29.62.63-.11.48.42.1-.64.55-.33L55.34,14Zm11.75,2-.47.44-.64-.07.27.56-.27.57.63-.09.47.42.12-.61.56-.31-.56-.3ZM53.13,11l-.34.55-.63.09.41.5-.12.63.59-.24.57.31v-.65l.46-.45-.62-.15Zm4.78,1.16-.45.47-.64-.06.29.58-.25.59.63-.1.49.42.09-.64.55-.34-.57-.29Zm-9.62-1.39-.34.55-.64.09.41.49-.11.64.59-.24.56.31V12l.46-.45-.62-.15Zm14,2.87-.42.48h-.64l.34.53-.21.6.63-.15.51.36,0-.62.52-.37-.59-.23ZM51.13,8.75l-.34.54-.66.09.41.5-.11.64.59-.24.56.3V9.94L52,9.49l-.62-.16Zm18.4,5.77-.47.44-.64-.07.27.56-.27.57.63-.09.47.43.12-.62.56-.31-.56-.29Zm-4.48-1.89-.47.44L64,13l.27.56-.27.57.63-.09.47.43.12-.62.56-.31-.56-.29ZM60.41,11l-.41.5h-.64l.33.55-.2.61.64-.16.52.38.05-.65.52-.38-.6-.24ZM46.22,8.92l-.34.55-.63.09.41.49-.12.64.6-.24.56.31v-.65l.43-.45-.62-.16ZM56,9.64l-.45.46L54.87,10l.29.57-.25.6.63-.11.48.43.1-.65.55-.33-.54-.26Zm11.88,1.93-.47.44-.64-.07.27.56-.27.57.63-.08.47.42.12-.62.57-.31L68,12.19ZM54,7.18l-.34.55-.63.09.41.5L53.36,9l.6-.24.56.31V8.37L55,7.93l-.62-.16Zm4.78,1.17-.45.46-.64-.06.29.58-.25.59.64-.1.48.42L59,9.6l.55-.33L59,9ZM49.2,7l-.34.55-.63.09.4.5-.11.63.61-.24.57.31-.05-.65.48-.44-.62-.16Zm14,2.87-.41.48h-.66l.33.53-.2.59.62-.15.51.37V11l.52-.37-.59-.23ZM52,4.94l-.34.55-.64.08.41.5-.11.64L52,6.47l.56.3V6.13L53,5.68l-.62-.16Zm18.4,5.78-.47.43-.64-.07.27.56-.27.57.63-.08.47.42.12-.62.58-.31-.56-.29ZM66,8.83l-.47.43-.64-.07.27.56-.27.57.63-.08.47.42.12-.62.57-.31-.51-.29ZM61.3,7.2l-.41.5h-.64l.34.55-.2.61L61,8.71l.51.38,0-.65L62.13,8l-.59-.24ZM47.13,5.11l-.35.55-.65.09.41.49-.12.64.6-.24.56.31V6.3L48,5.85l-.62-.15Zm9.73.72-.45.46h-.64l.29.57-.25.6.63-.11.48.43.1-.64.55-.34L57,6.51Zm11.68,2-.47.43-.63-.07.27.56-.28.57.64-.08.46.42L68.65,9l.56-.31-.56-.3ZM54.74,3.39l-.34.55L53.76,4l.41.5-.11.64.59-.24.56.31V4.58l.46-.45L55,4Zm4.78,1.16L59.06,5h-.63l.29.57-.25.6L59.13,6l.48.43.1-.64.55-.34-.57-.29ZM49.89,3.16l-.34.55-.63.08.41.5-.12.64.6-.24.56.3V4.35l.46-.45-.7-.16ZM63.89,6l-.41.48h-.64l.29.52-.2.6.62-.16.51.37.07-.61.53-.37-.53-.23Zm7.24.9-.47.43L70,7.28l.27.57L70,8.41l.64-.08.46.42.13-.61.56-.31-.56-.3ZM66.65,5l-.47.43-.63-.07.27.57-.28.57.64-.09.46.42.13-.61.56-.31-.56-.3ZM62,3.41l-.42.5h-.64l.34.55-.2.62.62-.16.51.38,0-.64.52-.38L62.19,4ZM47.81,1.32l-.34.55L46.83,2l.41.5-.11.64.59-.24.56.3V2.51L48.71,2l-.58-.12Zm9.73.7-.41.48-.64-.06.29.58-.25.59.64-.1.48.42.1-.64L58.3,3l-.57-.29Z"/></g></g></g></g></svg>